<svg width="301" height="301" viewBox="0 0 301 301" fill="none" xmlns="http://www.w3.org/2000/svg">
<g clip-path="url(#clip0_135_12)">
<path d="M139.649 189.55C140.168 194.566 144.402 198.3 149.336 198.3C149.671 198.3 150.009 198.283 150.35 198.248C155.706 197.694 159.6 192.903 159.046 187.547L154.549 144.035C153.995 138.679 149.202 134.79 143.848 135.339C138.492 135.893 134.598 140.684 135.152 146.04L139.649 189.55Z" fill="#036434"/>
<path d="M200.67 198.248C201.01 198.283 201.348 198.3 201.684 198.3C206.619 198.3 210.852 194.566 211.371 189.55L215.866 146.039C216.42 140.681 212.527 135.89 207.17 135.338C201.81 134.79 197.022 138.679 196.468 144.034L191.972 187.545C191.418 192.903 195.312 197.694 200.67 198.248Z" fill="#036434"/>
<path d="M125.17 240.63C108.527 240.63 94.9883 254.17 94.9883 270.812C94.9883 287.458 108.527 301.001 125.17 301.001C141.812 301.001 155.353 287.458 155.353 270.812C155.353 254.17 141.812 240.63 125.17 240.63ZM125.17 281.499C119.28 281.499 114.49 276.704 114.49 270.811C114.49 264.921 119.28 260.13 125.17 260.13C131.059 260.13 135.851 264.921 135.851 270.811C135.851 276.704 131.059 281.499 125.17 281.499Z" fill="#036434"/>
<path d="M225.85 240.63C209.207 240.63 195.667 254.17 195.667 270.812C195.667 287.458 209.206 301.001 225.85 301.001C242.494 301.001 256.035 287.458 256.035 270.812C256.035 254.17 242.494 240.63 225.85 240.63ZM225.85 281.499C219.96 281.499 215.168 276.704 215.168 270.811C215.168 264.921 219.96 260.13 225.85 260.13C231.74 260.13 236.534 264.921 236.534 270.811C236.534 276.704 231.742 281.499 225.85 281.499Z" fill="#036434"/>
<path d="M284.173 102.811C282.327 100.423 279.478 99.0237 276.46 99.0237H82.1031L73.9411 67.6383C72.8231 63.3415 68.9436 60.3422 64.5038 60.3422H24.5404C19.1555 60.3422 14.7898 64.7079 14.7898 70.0929C14.7898 75.4778 19.1555 79.8435 24.5404 79.8435H56.9646L65.0602 110.975C65.1006 111.15 65.1461 111.323 65.1955 111.493L95.3016 227.26C96.4196 231.557 100.299 234.556 104.739 234.556H246.285C250.724 234.556 254.604 231.557 255.722 227.26L285.897 111.228C286.656 108.309 286.019 105.2 284.173 102.811ZM238.745 215.058H112.278L87.1747 118.526H263.85L238.745 215.058Z" fill="#036434"/>
<path d="M137.232 68.7109C139.135 70.6129 141.63 71.5646 144.125 71.5646C146.621 71.5646 149.117 70.6116 151.022 68.707C154.829 64.8977 154.827 58.7236 151.018 54.917L120.353 24.2661C116.544 20.4595 110.371 20.4608 106.563 24.2687C102.756 28.078 102.758 34.2521 106.566 38.0587L137.232 68.7109Z" fill="#036434"/>
<path d="M206.94 71.5633C209.436 71.5633 211.934 70.6103 213.838 68.7044L244.458 38.0574C248.265 34.2482 248.261 28.0741 244.451 24.2687C240.642 20.4621 234.468 20.466 230.663 24.2752L200.043 54.9222C196.236 58.7314 196.24 64.9055 200.05 68.7122C201.953 70.6129 204.446 71.5633 206.94 71.5633Z" fill="#036434"/>
<path d="M175.52 62.8085H175.522C180.906 62.8085 185.271 58.4441 185.273 53.0604L185.283 9.75325C185.284 4.36829 180.92 0.00130009 175.535 0H175.534C170.149 0 165.783 4.36439 165.782 9.74805L165.771 53.0552C165.77 58.4402 170.135 62.8072 175.52 62.8085Z" fill="#036434"/>
</g>
<defs>
<clipPath id="clip0_135_12">
<rect width="301" height="301" fill="white"/>
</clipPath>
</defs>
</svg>
