<?xml version="1.0" encoding="UTF-8"?>
<svg id="Layer_1" data-name="Layer 1" xmlns="http://www.w3.org/2000/svg" xmlns:xlink="http://www.w3.org/1999/xlink" viewBox="0 0 150 150">
  <defs>
    <style>
      .cls-1 {
        fill: #d06146;
      }

      .cls-1, .cls-2 {
        stroke-width: 0px;
      }

      .cls-3 {
        filter: url(#drop-shadow-1);
      }

      .cls-2 {
        fill: #fff;
      }
    </style>
    <filter id="drop-shadow-1" filterUnits="userSpaceOnUse">
      <feOffset dx="5" dy="5"/>
      <feGaussianBlur result="blur" stdDeviation="5"/>
      <feFlood flood-color="#000" flood-opacity=".4"/>
      <feComposite in2="blur" operator="in"/>
      <feComposite in="SourceGraphic"/>
    </filter>
  </defs>
  <g class="cls-3">
    <g id="_87" data-name="87">
      <g>
        <path class="cls-2" d="M44.07,71.66c-4.23-1.22-6.59-5.52-5.36-9.8,1.23-4.27,5.51-6.66,9.75-5.44l30.03,8.65c4.24,1.22,6.59,5.52,5.36,9.8-1.23,4.27-5.51,6.66-9.75,5.44l-30.03-8.65Z"/>
        <path class="cls-2" d="M46.82,62.09c-2.51-.72-3.64,3.18-1.13,3.9,10.01,2.89,20.02,5.77,30.03,8.65,2.52.73,3.64-3.18,1.13-3.9-10.01-2.88-20.02-5.77-30.03-8.65Z"/>
        <path class="cls-2" d="M41.41,80.89c-4.23-1.22-6.59-5.52-5.36-9.79s5.51-6.66,9.75-5.44l30.03,8.65c4.24,1.22,6.59,5.52,5.36,9.79s-5.51,6.66-9.75,5.44l-30.03-8.65Z"/>
        <path class="cls-2" d="M74.19,79.97c-10.01-2.88-20.02-5.77-30.03-8.65-2.51-.72-3.64,3.18-1.12,3.9,10.01,2.89,20.02,5.77,30.03,8.65,2.52.73,3.64-3.17,1.12-3.9Z"/>
        <path class="cls-2" d="M38.94,89.44c-4.23-1.22-6.59-5.52-5.36-9.79s5.51-6.66,9.75-5.44l30.03,8.65c4.24,1.22,6.59,5.52,5.36,9.79-1.23,4.27-5.51,6.66-9.75,5.44,0,0-30.03-8.65-30.03-8.65Z"/>
        <path class="cls-2" d="M71.73,88.52c-10.01-2.88-20.02-5.77-30.03-8.65-2.51-.72-3.64,3.18-1.12,3.9,10.01,2.89,20.02,5.77,30.03,8.65,2.52.73,3.64-3.17,1.12-3.9Z"/>
        <path class="cls-2" d="M36.28,98.67c-4.23-1.22-6.59-5.52-5.36-9.79s5.51-6.66,9.75-5.44l30.03,8.65c4.24,1.22,6.59,5.52,5.36,9.79-1.23,4.27-5.51,6.66-9.75,5.44,0,0-30.03-8.65-30.03-8.65Z"/>
        <path class="cls-2" d="M69.07,97.75l-30.03-8.65c-2.51-.72-3.64,3.17-1.12,3.9,10.01,2.89,20.02,5.77,30.03,8.65,2.52.73,3.64-3.17,1.12-3.9Z"/>
        <path class="cls-2" d="M33.19,107.21c-4.23-1.22-6.59-5.52-5.36-9.79s5.51-6.66,9.75-5.44l30.04,8.66c4.23,1.22,6.59,5.52,5.35,9.79s-5.51,6.66-9.75,5.44l-30.04-8.66Z"/>
        <path class="cls-2" d="M65.99,106.3c-10.01-2.89-20.03-5.77-30.04-8.66-2.51-.72-3.64,3.18-1.12,3.9,10.01,2.88,20.02,5.77,30.04,8.66,2.51.72,3.63-3.18,1.12-3.9Z"/>
        <path class="cls-2" d="M16.94,116.85c-3.13-.9-4.94-4.17-4.03-7.3l20.98-72.81c.9-3.13,4.17-4.94,7.3-4.03l45.65,13.16c1.47.42,2.72,1.41,3.48,2.74l7.51,13.1c.79,1.38.99,3.03.55,4.57l-18.07,62.71c-.9,3.13-4.17,4.94-7.3,4.03l-56.07-16.16ZM67.16,113.79l12.71-44.09-2.4-.69c-3.13-.9-4.94-4.17-4.03-7.3l.58-2.02-26.97-7.77-14.92,51.78,35.04,10.1Z"/>
        <path class="cls-2" d="M39.56,38.36l-20.98,72.81,56.07,16.16,18.07-62.71-7.51-13.1-45.65-13.16h0ZM71.2,121.09l-46.38-13.37,18.19-63.12,38.31,11.04-2.22,7.69,8.06,2.32-15.97,55.43h0Z"/>
        <path class="cls-2" d="M78.73,122.57c-3.13-.9-4.94-4.17-4.03-7.3l1.4-4.85c.52-1.79,1.81-3.15,3.41-3.81l13.06-45.33-2.4-.69c-3.13-.9-4.94-4.17-4.03-7.3l.58-2.02-27.37-7.89c-1.44,1.86-3.91,2.75-6.3,2.06l-4.85-1.4c-3.13-.9-4.94-4.17-4.03-7.3l2.43-8.43c.9-3.13,4.17-4.94,7.3-4.03l45.66,13.16c1.47.42,2.72,1.41,3.48,2.74l7.51,13.1c.79,1.38.99,3.03.55,4.57l-18.07,62.71c-.9,3.13-4.17,4.94-7.3,4.03l-6.98-2.01Z"/>
        <polygon class="cls-2" points="52.25 29.94 49.83 38.37 54.67 39.76 55.71 36.18 94.02 47.22 91.8 54.91 99.87 57.24 83.89 112.67 81.76 112.05 80.36 116.9 87.34 118.91 105.42 56.2 97.91 43.1 52.25 29.94"/>
        <path class="cls-2" d="M91.62,115.29c-3.13-.9-4.94-4.17-4.03-7.3l1.4-4.85c.52-1.79,1.81-3.15,3.4-3.81l13.06-45.33-2.4-.69c-3.13-.9-4.94-4.17-4.03-7.3l.58-2.02-27.37-7.89c-1.44,1.86-3.91,2.75-6.3,2.06l-4.85-1.4c-3.13-.9-4.94-4.17-4.03-7.3l2.43-8.43c.9-3.13,4.17-4.94,7.3-4.03l45.65,13.16c1.47.42,2.72,1.41,3.48,2.74l7.51,13.11c.79,1.38.99,3.03.55,4.57l-18.07,62.71c-.9,3.13-4.17,4.94-7.3,4.03l-6.98-2.01Z"/>
        <polygon class="cls-2" points="110.79 35.82 65.14 22.66 62.71 31.09 67.56 32.49 68.59 28.91 106.9 39.95 104.68 47.64 112.75 49.96 96.78 105.39 94.65 104.78 93.25 109.62 100.23 111.64 118.3 48.92 110.79 35.82"/>
      </g>
    </g>
    <rect class="cls-2" x="38.71" y="54.28" width="52.66" height="22.6" transform="translate(20.7 -15.45) rotate(16.08)"/>
  </g>
  <g id="_87-2" data-name="87">
    <g>
      <path class="cls-1" d="M46.21,63.82c-2.51-.72-3.64,3.18-1.13,3.9,10.01,2.89,20.02,5.77,30.03,8.65,2.52.73,3.64-3.18,1.13-3.9-10.01-2.88-20.02-5.77-30.03-8.65Z"/>
      <path class="cls-1" d="M73.58,81.7c-10.01-2.88-20.02-5.77-30.03-8.65-2.51-.72-3.64,3.18-1.12,3.9,10.01,2.89,20.02,5.77,30.03,8.65,2.52.73,3.64-3.17,1.12-3.9Z"/>
      <path class="cls-1" d="M71.11,90.26c-10.01-2.88-20.02-5.77-30.03-8.65-2.51-.72-3.64,3.18-1.12,3.9,10.01,2.89,20.02,5.77,30.03,8.65,2.52.73,3.64-3.17,1.12-3.9Z"/>
      <path class="cls-1" d="M68.45,99.49c-10.01-2.88-20.02-5.77-30.03-8.65-2.51-.72-3.64,3.17-1.12,3.9,10.01,2.89,20.02,5.77,30.03,8.65,2.52.73,3.64-3.17,1.12-3.9Z"/>
      <path class="cls-1" d="M65.37,108.03c-10.01-2.89-20.03-5.77-30.04-8.66-2.51-.72-3.64,3.18-1.12,3.9,10.01,2.88,20.02,5.77,30.04,8.66,2.51.72,3.63-3.18,1.12-3.9Z"/>
      <path class="cls-1" d="M38.94,40.1l-20.98,72.81,56.07,16.16,18.07-62.71-7.51-13.1-45.65-13.16h0ZM70.58,122.83l-46.38-13.37,18.19-63.12,38.31,11.04-2.22,7.69,8.06,2.32-15.97,55.43h0Z"/>
      <polygon class="cls-1" points="51.64 31.67 49.21 40.1 54.06 41.5 55.09 37.91 93.4 48.95 91.18 56.65 99.25 58.97 83.28 114.4 81.15 113.78 79.75 118.63 86.73 120.64 104.8 57.93 97.29 44.83 51.64 31.67"/>
      <polygon class="cls-1" points="110.18 37.55 64.52 24.39 62.09 32.82 66.94 34.22 67.97 30.64 106.29 41.68 104.07 49.37 112.14 51.7 96.16 107.12 94.03 106.51 92.64 111.36 99.61 113.37 117.69 50.66 110.18 37.55"/>
    </g>
  </g>
</svg>