<svg width="699" height="426" viewBox="0 0 699 426" fill="none" xmlns="http://www.w3.org/2000/svg">
<g clip-path="url(#clip0_136_22)">
<path opacity="0.7" d="M690.46 280.65H591.97V379.16H690.46V280.65Z" fill="#FFDF82"/>
<path opacity="0.7" d="M625.59 280.65H591.97V379.16H625.59V280.65Z" fill="#FFDF82"/>
<mask id="mask0_136_22" style="mask-type:luminance" maskUnits="userSpaceOnUse" x="591" y="196" width="100" height="85">
<path d="M690.46 196.9H591.97V280.65H690.46V196.9Z" fill="white"/>
</mask>
<g mask="url(#mask0_136_22)">
<path d="M628.82 377.37L625.75 225.73L644.37 224.62L647.44 376.26L628.82 377.37Z" fill="#FFDF82"/>
<path d="M635.27 228.87C630.11 229.18 625.84 227.87 625.73 225.96C625.62 224.04 629.7 222.24 634.86 221.93C640.02 221.62 644.29 222.93 644.4 224.84C644.51 226.76 640.43 228.56 635.27 228.87Z" fill="#FFCC31"/>
<g style="mix-blend-mode:screen" opacity="0.5">
<path d="M640.72 226.25C641.26 226.35 641.79 225.83 641.81 225.27C641.84 224.72 641.47 224.2 641 223.91C640.53 223.61 639.98 223.5 639.43 223.41C636.45 222.94 633.36 223.17 630.48 224.07C629.74 224.3 628.89 224.73 628.84 225.51C628.81 225.94 629.07 226.35 629.41 226.61C629.75 226.87 630.17 227.01 630.59 227.12C632.73 227.7 635.02 227.75 637.19 227.24C637.78 227.1 638.38 226.91 638.84 226.52C639.11 226.28 639.33 225.92 639.24 225.58C639.14 225.22 638.74 225.04 638.38 224.92C636.93 224.46 635.37 224.4 633.89 224.75C633.51 224.84 633.03 225.13 633.17 225.5C633.25 225.7 633.48 225.79 633.69 225.83C634.32 225.97 634.98 225.95 635.6 225.78" stroke="#E6E6E6" stroke-width="0.31" stroke-linecap="round" stroke-linejoin="round"/>
</g>
<path d="M650.01 355.14L668.39 204.59L686.98 206.12L668.6 356.67L650.01 355.14Z" fill="#263447"/>
<path d="M677.38 209.04C672.23 208.62 668.19 206.72 668.34 204.81C668.5 202.9 672.8 201.69 677.95 202.11C683.1 202.53 687.14 204.43 686.99 206.34C686.83 208.25 682.53 209.46 677.38 209.04Z" fill="#1B2433"/>
<g style="mix-blend-mode:screen" opacity="0.5">
<path d="M683.14 207.21C683.67 207.38 684.26 206.94 684.36 206.4C684.46 205.86 684.18 205.3 683.75 204.94C683.33 204.58 682.79 204.39 682.26 204.23C679.37 203.34 676.28 203.13 673.31 203.62C672.55 203.74 671.64 204.05 671.49 204.81C671.4 205.23 671.59 205.67 671.9 205.98C672.2 206.29 672.6 206.48 672.99 206.66C675.03 207.54 677.29 207.91 679.5 207.71C680.1 207.66 680.72 207.55 681.23 207.23C681.53 207.03 681.8 206.71 681.76 206.35C681.71 205.98 681.34 205.74 681.01 205.58C679.64 204.92 678.1 204.64 676.59 204.77C676.2 204.8 675.69 205.03 675.78 205.41C675.83 205.62 676.04 205.74 676.24 205.81C676.84 206.04 677.5 206.11 678.14 206.03" stroke="#E6E6E6" stroke-width="0.31" stroke-linecap="round" stroke-linejoin="round"/>
</g>
<path d="M645.76 395.31L647.66 243.65L666.31 243.15L664.41 394.81L645.76 395.31Z" fill="#355FFC"/>
<path d="M657.07 247.1C651.91 247.24 647.68 245.8 647.63 243.88C647.58 241.96 651.72 240.29 656.89 240.15C662.05 240.01 666.28 241.45 666.33 243.37C666.38 245.29 662.24 246.96 657.07 247.1Z" fill="#302DB8"/>
<g style="mix-blend-mode:screen" opacity="0.5">
<path d="M662.61 244.66C663.15 244.78 663.69 244.27 663.74 243.72C663.78 243.17 663.44 242.64 662.98 242.33C662.52 242.02 661.97 241.89 661.43 241.78C658.47 241.21 655.37 241.34 652.46 242.15C651.71 242.36 650.85 242.76 650.78 243.53C650.74 243.96 650.98 244.38 651.31 244.65C651.64 244.92 652.06 245.08 652.47 245.2C654.59 245.85 656.88 245.97 659.06 245.54C659.65 245.42 660.26 245.25 660.73 244.87C661.01 244.64 661.24 244.29 661.16 243.94C661.07 243.58 660.68 243.38 660.33 243.26C658.9 242.76 657.33 242.64 655.85 242.94C655.46 243.02 654.98 243.3 655.11 243.67C655.18 243.87 655.41 243.97 655.62 244.02C656.24 244.18 656.91 244.19 657.53 244.02" stroke="#E6E6E6" stroke-width="0.31" stroke-linecap="round" stroke-linejoin="round"/>
</g>
<path d="M651.26 401.25L671.1 250.88L689.68 252.59L669.84 402.96L651.26 401.25Z" fill="#F36543"/>
<path d="M680.04 255.42C674.9 254.95 670.87 253.01 671.04 251.1C671.21 249.19 675.53 248.02 680.67 248.49C685.81 248.96 689.84 250.9 689.67 252.81C689.49 254.72 685.18 255.89 680.04 255.42Z" fill="#F53102"/>
<g style="mix-blend-mode:screen" opacity="0.5">
<path d="M685.82 253.64C686.34 253.82 686.94 253.38 687.05 252.84C687.16 252.3 686.88 251.73 686.46 251.37C686.04 251.01 685.51 250.81 684.98 250.64C682.1 249.73 679.01 249.49 676.03 249.94C675.26 250.06 674.36 250.36 674.19 251.11C674.1 251.53 674.29 251.98 674.58 252.29C674.88 252.6 675.27 252.8 675.66 252.98C677.69 253.88 679.95 254.27 682.16 254.09C682.76 254.04 683.39 253.95 683.9 253.62C684.2 253.43 684.48 253.1 684.43 252.75C684.38 252.38 684.02 252.14 683.68 251.97C682.32 251.3 680.78 251 679.27 251.12C678.88 251.15 678.36 251.37 678.45 251.75C678.5 251.96 678.71 252.08 678.91 252.16C679.51 252.4 680.17 252.48 680.81 252.4" stroke="#E6E6E6" stroke-width="0.31" stroke-linecap="round" stroke-linejoin="round"/>
</g>
</g>
<path d="M598.73 353.52L597.17 379.99C597.13 380.72 596.65 381.35 595.96 381.59C594.08 382.23 590.07 383.39 585.39 383.42C580.58 383.46 576.4 382.32 574.43 381.7C573.71 381.47 573.21 380.84 573.17 380.09L571.6 353.51H598.74L598.73 353.52Z" fill="#F0FAFF"/>
<path d="M600.08 349.41L599.61 354.73C599.44 354.77 592.47 356.58 585.41 356.63C578.3 356.68 571.11 354.98 570.73 354.88L570.24 349.41H600.08Z" fill="#92CEFF"/>
<path d="M598.21 362.35L597.66 371.56C595.07 372.11 590.26 372.98 585.4 373.01C580.39 373.05 575.33 372.22 572.66 371.68L572.11 362.47C575.35 363.06 580.41 363.79 585.43 363.75C590.27 363.71 595.08 362.96 598.2 362.35H598.21Z" fill="#263447"/>
<path d="M600.08 349.45C600.08 351.06 593.39 352.37 585.14 352.37C576.89 352.37 570.2 351.06 570.2 349.45C570.2 347.84 576.89 346.53 585.14 346.53C593.39 346.53 600.08 347.84 600.08 349.45Z" fill="#263447"/>
<path d="M670.83 355.48L669.27 381.95C669.23 382.68 668.75 383.31 668.06 383.55C666.18 384.19 662.17 385.35 657.49 385.38C652.68 385.42 648.5 384.28 646.53 383.66C645.81 383.43 645.31 382.8 645.27 382.05L643.7 355.47H670.84L670.83 355.48Z" fill="#F0FAFF"/>
<path d="M672.18 351.37L671.71 356.69C671.54 356.73 664.57 358.54 657.51 358.59C650.4 358.64 643.21 356.94 642.83 356.84L642.34 351.37H672.18Z" fill="#92CEFF"/>
<path d="M670.31 364.31L669.76 373.52C667.17 374.07 662.36 374.94 657.5 374.97C652.49 375.01 647.43 374.18 644.76 373.64L644.21 364.43C647.45 365.02 652.51 365.75 657.53 365.71C662.37 365.67 667.18 364.92 670.3 364.31H670.31Z" fill="#F53102"/>
<path d="M672.18 351.4C672.18 353.01 665.49 354.32 657.24 354.32C648.99 354.32 642.3 353.01 642.3 351.4C642.3 349.79 648.99 348.48 657.24 348.48C665.49 348.48 672.18 349.79 672.18 351.4Z" fill="#F53102"/>
<path d="M697.53 362.39L695.97 388.86C695.93 389.59 695.45 390.22 694.76 390.46C692.88 391.1 688.87 392.26 684.19 392.29C679.38 392.33 675.2 391.19 673.23 390.57C672.52 390.34 672.01 389.71 671.97 388.96L670.4 362.38H697.54L697.53 362.39Z" fill="#F0FAFF"/>
<path d="M698.88 358.28L698.41 363.6C698.24 363.64 691.27 365.45 684.21 365.5C677.1 365.55 669.91 363.85 669.53 363.75L669.04 358.28H698.88Z" fill="#92CEFF"/>
<path d="M697.01 371.22L696.46 380.43C693.87 380.98 689.06 381.85 684.2 381.88C679.19 381.92 674.13 381.09 671.46 380.55L670.91 371.34C674.15 371.93 679.21 372.66 684.23 372.62C689.07 372.58 693.88 371.83 697 371.22H697.01Z" fill="#FFCC31"/>
<path d="M698.88 358.32C698.88 359.93 692.19 361.24 683.94 361.24C675.69 361.24 669 359.93 669 358.32C669 356.71 675.69 355.4 683.94 355.4C692.19 355.4 698.88 356.71 698.88 358.32Z" fill="#FFCC31"/>
<path d="M150.44 228.69H0V379.16H150.44V228.69Z" fill="#F9E3AA"/>
<g style="mix-blend-mode:screen" opacity="0.8">
<path d="M135.64 241.33H14.8V349.55H135.64V241.33Z" fill="#DEF2FC"/>
</g>
<path opacity="0.55" d="M135.64 281.97H14.8V292.64H135.64V281.97Z" fill="#F9E3AA"/>
<path opacity="0.55" d="M135.64 338.87H14.8V349.54H135.64V338.87Z" fill="#F9E3AA"/>
<path d="M47.73 260.43L46.3 284.67C46.26 285.34 45.82 285.92 45.19 286.13C43.47 286.72 39.8 287.78 35.51 287.81C31.11 287.84 27.28 286.81 25.47 286.24C24.82 286.03 24.36 285.45 24.32 284.76L22.88 260.42H47.74L47.73 260.43Z" fill="#BBE4FF"/>
<path d="M48.96 256.67L48.53 261.54C48.38 261.58 41.99 263.23 35.52 263.28C29.01 263.33 22.42 261.77 22.08 261.68L21.63 256.67H48.96Z" fill="#92CEFF"/>
<path d="M47.25 268.52L46.75 276.96C44.38 277.47 39.97 278.26 35.53 278.29C30.94 278.32 26.31 277.56 23.86 277.07L23.36 268.63C26.33 269.17 30.96 269.83 35.56 269.8C39.99 269.77 44.4 269.08 47.25 268.52Z" fill="#F53102"/>
<path d="M48.96 256.7C48.96 258.17 42.83 259.37 35.28 259.37C27.73 259.37 21.6 258.17 21.6 256.7C21.6 255.23 27.73 254.03 35.28 254.03C42.83 254.03 48.96 255.23 48.96 256.7Z" fill="#F53102"/>
<path d="M47.73 314.65L46.3 338.89C46.26 339.56 45.82 340.14 45.19 340.35C43.47 340.94 39.8 342 35.51 342.03C31.11 342.06 27.28 341.03 25.47 340.46C24.82 340.25 24.36 339.67 24.32 338.98L22.88 314.64H47.74L47.73 314.65Z" fill="#BBE4FF"/>
<path d="M48.96 310.88L48.53 315.75C48.38 315.79 41.99 317.44 35.52 317.49C29.01 317.54 22.42 315.98 22.08 315.89L21.63 310.88H48.96Z" fill="#92CEFF"/>
<path d="M47.25 322.73L46.75 331.17C44.38 331.68 39.97 332.47 35.53 332.5C30.94 332.53 26.31 331.77 23.86 331.28L23.36 322.84C26.33 323.38 30.96 324.04 35.56 324.01C39.99 323.98 44.4 323.29 47.25 322.73Z" fill="#355FFC"/>
<path d="M48.96 310.92C48.96 312.39 42.83 313.59 35.28 313.59C27.73 313.59 21.6 312.39 21.6 310.92C21.6 309.45 27.73 308.25 35.28 308.25C42.83 308.25 48.96 309.45 48.96 310.92Z" fill="#355FFC"/>
<path d="M127.61 260.43L126.18 284.67C126.14 285.34 125.7 285.92 125.07 286.13C123.35 286.72 119.68 287.78 115.39 287.81C110.99 287.84 107.16 286.81 105.35 286.24C104.7 286.03 104.24 285.45 104.2 284.76L102.76 260.42H127.62L127.61 260.43Z" fill="#BBE4FF"/>
<path d="M128.85 256.67L128.42 261.54C128.27 261.58 121.88 263.23 115.41 263.28C108.9 263.33 102.31 261.77 101.97 261.68L101.52 256.67H128.85Z" fill="#92CEFF"/>
<path d="M127.13 268.52L126.63 276.96C124.26 277.47 119.85 278.26 115.41 278.29C110.82 278.32 106.19 277.56 103.74 277.07L103.24 268.63C106.21 269.17 110.84 269.83 115.44 269.8C119.87 269.77 124.28 269.08 127.13 268.52Z" fill="#FFCC31"/>
<path d="M128.85 256.7C128.85 258.17 122.72 259.37 115.17 259.37C107.62 259.37 101.49 258.17 101.49 256.7C101.49 255.23 107.62 254.03 115.17 254.03C122.72 254.03 128.85 255.23 128.85 256.7Z" fill="#FFCC31"/>
<path d="M127.61 314.65L126.18 338.89C126.14 339.56 125.7 340.14 125.07 340.35C123.35 340.94 119.68 342 115.39 342.03C110.99 342.06 107.16 341.03 105.35 340.46C104.7 340.25 104.24 339.67 104.2 338.98L102.76 314.64H127.62L127.61 314.65Z" fill="#BBE4FF"/>
<path d="M128.85 310.88L128.42 315.75C128.27 315.79 121.88 317.44 115.41 317.49C108.9 317.54 102.31 315.98 101.97 315.89L101.52 310.88H128.85Z" fill="#92CEFF"/>
<path d="M127.13 322.73L126.63 331.17C124.26 331.68 119.85 332.47 115.41 332.5C110.82 332.53 106.19 331.77 103.74 331.28L103.24 322.84C106.21 323.38 110.84 324.04 115.44 324.01C119.87 323.98 124.28 323.29 127.13 322.73Z" fill="#263447"/>
<path d="M128.85 310.92C128.85 312.39 122.72 313.59 115.17 313.59C107.62 313.59 101.49 312.39 101.49 310.92C101.49 309.45 107.62 308.25 115.17 308.25C122.72 308.25 128.85 309.45 128.85 310.92Z" fill="#263447"/>
<path d="M469.42 167.53H460.91V187.43H469.42V167.53Z" fill="#BBE4FF"/>
<g style="mix-blend-mode:multiply">
<path d="M464.51 167.53H460.91V187.43H464.51V167.53Z" fill="#BBE4FF"/>
</g>
<path d="M490.23 132.71H440.57C439.471 132.71 438.58 133.601 438.58 134.7V166.8C438.58 167.899 439.471 168.79 440.57 168.79H490.23C491.329 168.79 492.22 167.899 492.22 166.8V134.7C492.22 133.601 491.329 132.71 490.23 132.71Z" fill="#BBE4FF"/>
<path d="M490.17 135.33H444.69V166.15H490.17V135.33Z" fill="#1B2433"/>
<g style="mix-blend-mode:multiply">
<path d="M440.57 132.71H443.05V168.79H440.57C439.47 168.79 438.58 167.9 438.58 166.8V134.7C438.58 133.6 439.47 132.71 440.57 132.71Z" fill="#BBE4FF"/>
</g>
<g opacity="0.75">
<g style="mix-blend-mode:screen">
<path d="M465.89 138.37H446.76V139.71H465.89V138.37Z" fill="#BBE4FF"/>
</g>
<g style="mix-blend-mode:screen">
<path d="M465.89 141.77H446.76V143.11H465.89V141.77Z" fill="#BBE4FF"/>
</g>
<g style="mix-blend-mode:screen">
<path d="M460.04 148.59H446.76V149.93H460.04V148.59Z" fill="#BBE4FF"/>
</g>
<g style="mix-blend-mode:screen">
<path d="M460.04 151.99H446.76V153.33H460.04V151.99Z" fill="#BBE4FF"/>
</g>
<g style="mix-blend-mode:screen">
<path d="M458.41 155.4H446.76V156.74H458.41V155.4Z" fill="#BBE4FF"/>
</g>
<g style="mix-blend-mode:screen">
<path d="M476.47 145.18H446.76V146.52H476.47V145.18Z" fill="#BBE4FF"/>
</g>
</g>
<path d="M221.45 262.96H184.37V397.93H221.45V262.96Z" fill="#BBE4FF"/>
<g style="mix-blend-mode:multiply">
<path d="M200.05 262.96H184.37V397.93H200.05V262.96Z" fill="#BBE4FF"/>
</g>
<path d="M176.39 394.45H229.43C232.49 394.45 234.98 396.94 234.98 400V411.77H170.84V400C170.84 396.94 173.33 394.45 176.39 394.45Z" fill="#92CEFF"/>
<g style="mix-blend-mode:multiply">
<path d="M176.39 394.45H197.96V411.77H170.84V400C170.84 396.94 173.33 394.45 176.39 394.45Z" fill="#BBE4FF"/>
</g>
<path d="M512.15 262.96H475.07V397.93H512.15V262.96Z" fill="#BBE4FF"/>
<g style="mix-blend-mode:multiply">
<path d="M490.75 262.96H475.07V397.93H490.75V262.96Z" fill="#BBE4FF"/>
</g>
<path d="M467.08 394.45H520.12C523.18 394.45 525.67 396.94 525.67 400V411.77H461.53V400C461.53 396.94 464.02 394.45 467.08 394.45Z" fill="#92CEFF"/>
<g style="mix-blend-mode:multiply">
<path d="M467.08 394.45H488.65V411.77H461.53V400C461.53 396.94 464.02 394.45 467.08 394.45Z" fill="#BBE4FF"/>
</g>
<path d="M523.94 280.5H427.55V188.68C427.55 186.26 429.51 184.3 431.93 184.3H495.69L528.32 214.66V276.12C528.32 278.54 526.36 280.5 523.94 280.5Z" fill="#BBE4FF"/>
<g style="mix-blend-mode:multiply">
<path d="M528.32 214.67V276.13C528.32 278.55 526.36 280.51 523.94 280.51H427.55V188.68C427.55 186.26 429.51 184.3 431.93 184.3H495.69L528.2 214.56L528.32 214.67Z" fill="#BBE4FF"/>
</g>
<path d="M528.31 214.56V276.13C528.31 278.55 526.35 280.51 523.93 280.51H453.85V214.56H528.31Z" fill="#BBE4FF"/>
<g style="mix-blend-mode:multiply">
<path d="M515.24 224.94H472.65C470.325 224.94 468.44 226.825 468.44 229.15V265.91C468.44 268.235 470.325 270.12 472.65 270.12H515.24C517.565 270.12 519.45 268.235 519.45 265.91V229.15C519.45 226.825 517.565 224.94 515.24 224.94Z" stroke="#BBE4FF" stroke-width="0.99" stroke-miterlimit="10"/>
</g>
<g style="mix-blend-mode:multiply" opacity="0.5">
<path d="M528.32 214.56H453.93L427.55 190.09V188.68C427.55 186.26 429.51 184.3 431.93 184.3H495.69L528.32 214.56Z" fill="#BBE4FF"/>
</g>
<path d="M172.56 177.41H255.34C257.75 177.41 259.7 179.37 259.7 181.77V204.02H168.2V181.77C168.2 179.36 170.16 177.41 172.56 177.41Z" fill="#BBE4FF"/>
<g style="mix-blend-mode:multiply">
<path d="M172.56 177.41H182.65C185.06 177.41 187.01 179.37 187.01 181.77V204.02H168.2V181.77C168.2 179.36 170.16 177.41 172.56 177.41Z" fill="#BBE4FF"/>
</g>
<path d="M168.2 200.47H230.11V280.51H172.57C170.15 280.51 168.19 278.55 168.19 276.13V200.47H168.2Z" fill="#BBE4FF"/>
<g style="mix-blend-mode:multiply">
<path d="M229.73 280.5H172.57C170.15 280.5 168.19 278.54 168.19 276.12V200.46H203.91L229.72 224.48V280.5H229.73Z" fill="#BBE4FF"/>
</g>
<path d="M453.76 224.49H229.74V280.5H453.76V224.49Z" fill="#BBE4FF"/>
<path d="M453.76 224.49L427.95 200.47H203.92L229.73 224.49H229.74V280.5H454.03V224.49H453.76Z" fill="#BBE4FF"/>
<g style="mix-blend-mode:screen" opacity="0.55">
<g style="mix-blend-mode:multiply">
<path d="M427.95 200.47L453.76 224.49H229.73L203.92 200.47H427.95Z" fill="#BBE4FF"/>
</g>
</g>
<path d="M494.63 191.81H485.94C485.69 191.81 485.45 191.72 485.26 191.55L482.31 188.81C481.65 188.2 482.08 187.09 482.99 187.09H491.68C491.93 187.09 492.17 187.18 492.36 187.36L495.31 190.1C495.97 190.71 495.54 191.82 494.63 191.82V191.81Z" fill="#FFCC31"/>
<path d="M501.49 198.25H492.8C492.55 198.25 492.31 198.16 492.12 197.99L489.17 195.25C488.51 194.64 488.94 193.53 489.85 193.53H498.54C498.79 193.53 499.03 193.62 499.22 193.8L502.17 196.54C502.83 197.15 502.4 198.26 501.49 198.26V198.25Z" fill="#355FFC"/>
<path d="M508.76 205.01H500.07C499.82 205.01 499.58 204.92 499.39 204.75L496.44 202.01C495.78 201.4 496.21 200.29 497.12 200.29H505.81C506.06 200.29 506.3 200.38 506.49 200.56L509.44 203.3C510.1 203.92 509.67 205.02 508.76 205.02V205.01Z" fill="#FFDF82"/>
<path d="M515.92 211.61H507.23C506.98 211.61 506.74 211.52 506.55 211.35L503.6 208.61C502.94 208 503.37 206.89 504.28 206.89H512.97C513.22 206.89 513.46 206.98 513.65 207.16L516.6 209.9C517.26 210.51 516.83 211.62 515.92 211.62V211.61Z" fill="#F53102"/>
<path d="M476.3 191.81H467.61C467.36 191.81 467.12 191.72 466.93 191.55L463.98 188.81C463.32 188.2 463.75 187.09 464.66 187.09H473.35C473.6 187.09 473.84 187.18 474.03 187.36L476.98 190.1C477.64 190.71 477.21 191.82 476.3 191.82V191.81Z" fill="#FFCC31"/>
<path d="M483.16 198.25H474.47C474.22 198.25 473.98 198.16 473.79 197.99L470.84 195.25C470.18 194.64 470.61 193.53 471.52 193.53H480.21C480.46 193.53 480.7 193.62 480.89 193.8L483.84 196.54C484.5 197.15 484.07 198.26 483.16 198.26V198.25Z" fill="#355FFC"/>
<path d="M490.43 205.01H481.74C481.49 205.01 481.25 204.92 481.06 204.75L478.11 202.01C477.45 201.4 477.88 200.29 478.79 200.29H487.48C487.73 200.29 487.97 200.38 488.16 200.56L491.11 203.3C491.77 203.92 491.34 205.02 490.43 205.02V205.01Z" fill="#FFDF82"/>
<path d="M497.59 211.61H488.9C488.65 211.61 488.41 211.52 488.22 211.35L485.27 208.61C484.61 208 485.04 206.89 485.95 206.89H494.64C494.89 206.89 495.13 206.98 495.32 207.16L498.27 209.9C498.93 210.51 498.5 211.62 497.59 211.62V211.61Z" fill="#F53102"/>
<g style="mix-blend-mode:screen">
<path d="M474.34 203.52C474.23 204.48 471.96 205.02 469.27 204.72C466.58 204.42 464.48 203.39 464.59 202.43C464.7 201.47 466.97 200.93 469.66 201.23C472.35 201.53 474.45 202.56 474.34 203.52Z" fill="#BBE4FF"/>
</g>
<g style="mix-blend-mode:screen">
<path d="M466.86 196.67C466.75 197.63 464.48 198.17 461.79 197.87C459.1 197.57 457 196.54 457.11 195.58C457.22 194.62 459.49 194.08 462.18 194.38C464.87 194.68 466.97 195.71 466.86 196.67Z" fill="#BBE4FF"/>
</g>
<g style="mix-blend-mode:screen">
<path d="M459.8 190.03C459.69 190.99 457.42 191.53 454.73 191.23C452.04 190.93 449.94 189.9 450.05 188.94C450.16 187.98 452.43 187.44 455.12 187.74C457.81 188.04 459.91 189.07 459.8 190.03Z" fill="#BBE4FF"/>
</g>
<g style="mix-blend-mode:screen">
<path d="M481.72 210.27C481.61 211.23 479.34 211.77 476.65 211.47C473.96 211.17 471.86 210.14 471.97 209.18C472.08 208.22 474.35 207.68 477.04 207.98C479.73 208.28 481.83 209.31 481.72 210.27Z" fill="#BBE4FF"/>
</g>
<path d="M460.02 203.52C459.91 204.48 457.64 205.02 454.95 204.72C452.26 204.42 450.16 203.39 450.27 202.43C450.38 201.47 452.65 200.93 455.34 201.23C458.03 201.53 460.13 202.56 460.02 203.52Z" fill="#FFDF82"/>
<path d="M452.54 196.67C452.43 197.63 450.16 198.17 447.47 197.87C444.78 197.57 442.68 196.54 442.79 195.58C442.9 194.62 445.17 194.08 447.86 194.38C450.55 194.68 452.65 195.71 452.54 196.67Z" fill="#FFDF82"/>
<path d="M445.48 190.03C445.37 190.99 443.1 191.53 440.41 191.23C437.72 190.93 435.62 189.9 435.73 188.94C435.84 187.98 438.11 187.44 440.8 187.74C443.49 188.04 445.59 189.07 445.48 190.03Z" fill="#FFDF82"/>
<path d="M467.39 210.27C467.28 211.23 465.01 211.77 462.32 211.47C459.63 211.17 457.53 210.14 457.64 209.18C457.75 208.22 460.02 207.68 462.71 207.98C465.4 208.28 467.5 209.31 467.39 210.27Z" fill="#FFDF82"/>
<g style="mix-blend-mode:screen">
<path d="M199.19 181.59H202.09C203.44 181.59 204.53 182.68 204.53 184.03V194.47C204.53 195.82 203.44 196.91 202.09 196.91H199.19C197.84 196.91 196.75 195.82 196.75 194.47V184.03C196.75 182.68 197.84 181.59 199.19 181.59Z" fill="#BBE4FF"/>
</g>
<path d="M214.48 181.59H217.38C218.73 181.59 219.82 182.68 219.82 184.03V194.47C219.82 195.82 218.73 196.91 217.38 196.91H214.48C213.13 196.91 212.04 195.82 212.04 194.47V184.03C212.04 182.68 213.13 181.59 214.48 181.59Z" fill="#355FFC"/>
<path d="M229.78 181.59H232.68C234.03 181.59 235.12 182.68 235.12 184.03V194.47C235.12 195.82 234.03 196.91 232.68 196.91H229.78C228.43 196.91 227.34 195.82 227.34 194.47V184.03C227.34 182.68 228.43 181.59 229.78 181.59Z" fill="#F53102"/>
<path d="M247.97 181.59H245.07C243.722 181.59 242.63 182.682 242.63 184.03V194.46C242.63 195.808 243.722 196.9 245.07 196.9H247.97C249.318 196.9 250.41 195.808 250.41 194.46V184.03C250.41 182.682 249.318 181.59 247.97 181.59Z" fill="#FFCC31"/>
<path d="M444.63 243.43H240.07V280.5H444.63V243.43Z" fill="#1B2433"/>
<path d="M444.63 243.43H240.07V251.06H444.63V243.43Z" fill="#302DB8"/>
<path d="M298.34 412.96C298.34 412.96 277.67 414.54 273.34 408.42C269.79 403.41 270.62 396.39 274.24 391.44C277.86 386.49 283.21 383.13 287.66 378.9C292.11 374.67 295.85 368.75 294.67 362.73C293.12 354.76 283.97 350.78 275.89 350C267.81 349.22 259.21 350.18 251.97 346.5C249.54 345.27 247.34 343.5 245.89 341.2C242.25 335.39 244.27 327.52 248.39 322.05C252.51 316.58 258.38 312.74 263.47 308.16C266.35 305.57 269.06 302.61 270.39 298.97C271.49 295.95 271.57 292.63 271.09 289.46C269.15 276.58 257.26 265.93 244.25 265.4H418.66C431.67 265.93 443.56 276.58 445.5 289.46C445.98 292.64 445.9 295.96 444.8 298.97C443.47 302.61 440.76 305.56 437.88 308.16C432.79 312.74 426.92 316.58 422.8 322.05C418.68 327.52 416.66 335.4 420.3 341.2C421.74 343.51 423.95 345.27 426.38 346.5C433.62 350.18 442.22 349.21 450.3 350C458.38 350.78 467.53 354.76 469.08 362.73C470.25 368.75 466.51 374.67 462.07 378.9C457.62 383.13 452.27 386.48 448.65 391.44C445.03 396.39 443.56 403.94 447.75 408.42C451.38 412.3 457.2 412.96 457.2 412.96H298.34Z" fill="#355FFC"/>
<path d="M298.34 412.96C298.34 412.96 277.67 414.54 273.34 408.42C269.79 403.41 270.62 396.39 274.24 391.44C277.86 386.49 283.21 383.13 287.66 378.9C292.11 374.67 295.85 368.75 294.67 362.73C293.12 354.76 283.97 350.78 275.89 350C267.81 349.22 259.21 350.18 251.97 346.5C249.54 345.27 247.34 343.5 245.89 341.2C242.25 335.39 244.27 327.52 248.39 322.05C252.51 316.58 258.38 312.74 263.47 308.16C266.35 305.57 269.06 302.61 270.39 298.97C271.49 295.95 271.57 292.63 271.09 289.46C269.15 276.58 257.26 265.93 244.25 265.4H303.48C316.49 265.93 328.38 276.58 330.32 289.46C330.8 292.64 330.72 295.96 329.62 298.97C328.29 302.61 325.58 305.56 322.7 308.16C317.61 312.74 311.74 316.58 307.62 322.05C303.5 327.52 301.48 335.4 305.12 341.2C306.56 343.51 308.77 345.27 311.2 346.5C318.44 350.18 327.04 349.21 335.12 350C343.2 350.78 352.35 354.76 353.9 362.73C355.07 368.75 351.33 374.67 346.89 378.9C342.44 383.13 337.09 386.48 333.47 391.44C329.85 396.39 328.38 403.94 332.57 408.42C336.2 412.3 342.02 412.96 342.02 412.96H298.34Z" fill="#F53102"/>
<path d="M348.23 412.96C348.23 412.96 327.56 414.54 323.23 408.42C319.68 403.41 320.51 396.39 324.13 391.44C327.75 386.49 333.1 383.13 337.55 378.9C342 374.67 345.74 368.75 344.56 362.73C343.01 354.76 333.86 350.78 325.78 350C317.7 349.22 309.1 350.18 301.86 346.5C299.43 345.27 297.23 343.5 295.78 341.2C292.14 335.39 294.16 327.52 298.28 322.05C302.4 316.58 308.27 312.74 313.36 308.16C316.24 305.57 318.95 302.61 320.28 298.97C321.38 295.95 321.46 292.63 320.98 289.46C319.04 276.58 307.15 265.93 294.14 265.4H353.37C366.38 265.93 378.27 276.58 380.21 289.46C380.69 292.64 380.61 295.96 379.51 298.97C378.18 302.61 375.47 305.56 372.59 308.16C367.5 312.74 361.63 316.58 357.51 322.05C353.39 327.52 351.37 335.4 355.01 341.2C356.45 343.51 358.66 345.27 361.09 346.5C368.33 350.18 376.93 349.21 385.01 350C393.09 350.78 402.24 354.76 403.79 362.73C404.96 368.75 401.22 374.67 396.78 378.9C392.33 383.13 386.98 386.48 383.36 391.44C379.74 396.39 378.27 403.94 382.46 408.42C386.09 412.3 391.91 412.96 391.91 412.96H348.23Z" fill="#FFCC31"/>
<path d="M407.67 412.96C407.67 412.96 387 414.54 382.67 408.42C379.12 403.41 379.95 396.39 383.57 391.44C387.19 386.49 392.54 383.13 396.99 378.9C401.44 374.67 405.18 368.75 404 362.73C402.45 354.76 393.3 350.78 385.22 350C377.14 349.22 368.54 350.18 361.3 346.5C358.87 345.27 356.67 343.5 355.22 341.2C351.58 335.39 353.6 327.52 357.72 322.05C361.84 316.58 367.71 312.74 372.8 308.16C375.68 305.57 378.39 302.61 379.72 298.97C380.82 295.95 380.9 292.63 380.42 289.46C378.48 276.58 366.59 265.93 353.58 265.4H383.48C396.49 265.93 408.38 276.58 410.32 289.46C410.8 292.64 410.72 295.96 409.62 298.97C408.29 302.61 405.58 305.56 402.7 308.16C397.61 312.74 391.74 316.58 387.62 322.05C383.5 327.52 381.48 335.4 385.12 341.2C386.56 343.51 388.77 345.27 391.2 346.5C398.44 350.18 407.04 349.21 415.12 350C423.2 350.78 432.35 354.76 433.9 362.73C435.07 368.75 431.33 374.67 426.89 378.9C422.44 383.13 417.09 386.48 413.47 391.44C409.85 396.39 408.38 403.94 412.57 408.42C416.2 412.3 422.02 412.96 422.02 412.96H407.67Z" fill="#263447"/>
<g opacity="0.5">
<g style="mix-blend-mode:multiply" opacity="0.2">
<path d="M439.4 349.43H264.99C260.44 349.16 255.99 348.55 251.96 346.5C249.53 345.27 247.33 343.51 245.89 341.2C242.26 335.39 244.26 327.52 248.38 322.05C250.52 319.21 253.12 316.82 255.86 314.52H430.27C427.54 316.82 424.93 319.21 422.79 322.05C418.67 327.52 416.65 335.39 420.3 341.2C421.74 343.51 423.94 345.27 426.37 346.5C430.4 348.55 434.85 349.15 439.4 349.43Z" fill="#1B2433"/>
</g>
<g style="mix-blend-mode:multiply" opacity="0.2">
<path d="M457.2 412.96H298.34C298.34 412.96 277.68 414.54 273.34 408.42C269.8 403.41 270.62 396.39 274.24 391.44C275.3 389.99 276.51 388.67 277.8 387.44H452.21C450.92 388.67 449.72 389.99 448.65 391.44C445.03 396.39 443.56 403.94 447.75 408.42C451.38 412.3 457.2 412.96 457.2 412.96Z" fill="#1B2433"/>
</g>
<g style="mix-blend-mode:multiply" opacity="0.2">
<path d="M434.36 271.25H259.96C255.43 267.8 249.96 265.63 244.26 265.4H418.67C424.37 265.63 429.84 267.8 434.36 271.25Z" fill="#1B2433"/>
</g>
</g>
<path d="M621.3 388.05C627.72 387.9 634.14 387.96 640.56 388.22C640.62 388.94 640.68 389.66 640.74 390.36C643.96 409.68 622.13 404.98 621.29 392.47C621.41 391.3 621.4 389.75 621.3 388.06V388.05Z" fill="#92CEFF"/>
<path d="M619.46 375.67C619.32 375.19 639.78 373.53 639.79 374C639.79 377.43 640.14 383.03 640.56 388.22C634.15 387.96 627.72 387.91 621.3 388.05C621.05 383.73 620.21 378.41 619.46 375.67Z" fill="#FFAB88"/>
<path d="M646.38 406.01C646.99 407.35 647.31 408.82 647.29 410.29C647.29 411.17 647.08 412.18 646.32 412.63C646.32 412.63 609.68 420.81 604.29 421.77C599.12 422.68 593.27 422.47 590.45 421.66C589.63 421.42 589.02 420.73 588.88 419.89L588.52 417.64C588.46 417.24 588.77 416.87 589.18 416.88C589.18 416.88 602.55 417.53 612.45 414.65C622.35 411.77 646.38 406.03 646.38 406.03V406.01Z" fill="#FFCC31"/>
<path d="M596.68 410.98H596.69C596.98 410.99 597.26 410.99 597.54 410.96C598.86 410.82 620.43 396.99 621.6 396.56C622.69 396.16 624.5 398.32 625.59 397.92C625.64 397.96 629.03 400.73 632.28 400.4C640.58 399.55 641.07 391.87 641.07 391.87C644.48 395.98 646.11 400.73 646.51 406.06C646.51 406.06 623.82 411.76 617.3 413.66C610.78 415.56 593.54 418.95 589.18 416.86C589.18 416.86 587.87 414.29 594.61 411.98C595.15 411.79 596.22 411.32 596.68 410.98Z" fill="#FFDF82"/>
<path d="M605.68 407.41C604.21 408.15 602.75 408.88 601.28 409.62C600.09 410.22 598.87 410.82 597.55 410.96C597.27 410.99 596.98 410.99 596.7 410.96C600.36 408.35 616.5 396.74 621.69 391.4C621.69 391.4 624.81 391.1 627.64 395.27C627.64 395.27 628.35 396.91 625.6 397.92C624.51 398.32 620.8 397.9 619.71 398.3C618.54 398.73 607.38 406.56 605.69 407.41H605.68Z" fill="#FCD575"/>
<path d="M612.29 403.41C611.23 402.46 609.7 402.01 608.25 402.21" stroke="#FFCC31" stroke-width="0.97" stroke-linecap="round" stroke-linejoin="round"/>
<path d="M607.29 406.73C606.23 405.78 604.7 405.33 603.25 405.53" stroke="#FFCC31" stroke-width="0.97" stroke-linecap="round" stroke-linejoin="round"/>
<path d="M610.08 404.91C609.02 403.96 607.49 403.51 606.04 403.71" stroke="#FFCC31" stroke-width="0.97" stroke-linecap="round" stroke-linejoin="round"/>
<path d="M614.68 401.51C613.62 400.56 612.09 400.11 610.64 400.31" stroke="#FFCC31" stroke-width="0.97" stroke-linecap="round" stroke-linejoin="round"/>
<path d="M617.12 399.81C616.06 398.86 614.53 398.41 613.08 398.61" stroke="#FFCC31" stroke-width="0.97" stroke-linecap="round" stroke-linejoin="round"/>
<path opacity="0.5" d="M640.74 390.36L621.56 390.48" stroke="#355FFC" stroke-width="0.94" stroke-miterlimit="10"/>
<path d="M554.01 389.05C560.36 389.98 566.68 391.12 572.97 392.45C572.91 393.17 572.85 393.89 572.79 394.59C572.72 414.18 551.99 405.88 553.26 393.4C553.58 392.27 553.83 390.74 554.02 389.05H554.01Z" fill="#92CEFF"/>
<path d="M554.28 376.53C554.23 376.04 574.67 377.84 574.6 378.3C574.02 381.68 573.43 387.26 572.97 392.45C566.69 391.12 560.37 389.99 554.01 389.05C554.49 384.75 554.55 379.37 554.27 376.54L554.28 376.53Z" fill="#FFAB88"/>
<path d="M575.72 410.96C576.1 412.38 576.16 413.88 575.9 415.33C575.74 416.2 575.38 417.16 574.55 417.47C574.55 417.47 537.06 419.38 531.58 419.42C526.33 419.45 520.6 418.26 517.95 416.98C517.18 416.61 516.7 415.83 516.7 414.97L516.72 412.69C516.72 412.28 517.1 411.98 517.5 412.05C517.5 412.05 530.57 414.94 540.81 413.76C551.05 412.59 575.71 410.96 575.71 410.96H575.72Z" fill="#FFCC31"/>
<path d="M525.89 407.52H525.91C526.19 407.58 526.47 407.63 526.75 407.65C528.08 407.74 551.66 397.73 552.89 397.5C554.03 397.29 555.45 399.72 556.59 399.51C556.63 399.56 559.51 402.86 562.76 403.08C571.08 403.64 572.85 396.14 572.85 396.14C575.52 400.77 576.33 405.72 575.83 411.04C575.83 411.04 552.51 412.85 545.76 413.63C539.01 414.41 521.45 414.86 517.5 412.07C517.5 412.07 516.64 409.32 523.68 408.17C524.25 408.08 525.37 407.78 525.89 407.53V407.52Z" fill="#FFDF82"/>
<path d="M535.36 405.51C533.79 405.99 532.22 406.47 530.65 406.95C529.38 407.34 528.07 407.73 526.75 407.64C526.47 407.62 526.18 407.57 525.91 407.5C529.95 405.54 547.82 396.8 553.83 392.41C553.83 392.41 556.95 392.64 559.05 397.22C559.05 397.22 559.47 398.96 556.6 399.49C555.46 399.7 551.87 398.66 550.73 398.88C549.51 399.11 537.19 404.95 535.38 405.51H535.36Z" fill="#FCD575"/>
<path d="M542.54 402.67C541.65 401.56 540.22 400.85 538.75 400.81" stroke="#FFCC31" stroke-width="0.97" stroke-linecap="round" stroke-linejoin="round"/>
<path d="M537.06 405.11C536.17 404 534.74 403.29 533.27 403.25" stroke="#FFCC31" stroke-width="0.97" stroke-linecap="round" stroke-linejoin="round"/>
<path d="M540.11 403.78C539.22 402.67 537.79 401.96 536.32 401.92" stroke="#FFCC31" stroke-width="0.97" stroke-linecap="round" stroke-linejoin="round"/>
<path d="M545.22 401.21C544.33 400.1 542.9 399.39 541.43 399.35" stroke="#FFCC31" stroke-width="0.97" stroke-linecap="round" stroke-linejoin="round"/>
<path d="M547.91 399.94C547.02 398.83 545.59 398.12 544.12 398.08" stroke="#FFCC31" stroke-width="0.97" stroke-linecap="round" stroke-linejoin="round"/>
<path opacity="0.5" d="M572.79 394.59L553.85 391.48" stroke="#355FFC" stroke-width="0.94" stroke-miterlimit="10"/>
<path d="M549.19 384.08C549.19 384.55 580.54 386.92 580.54 386.92C580.54 386.92 582.7 307.69 582.63 307.18C582.49 306.19 590.49 264.93 597.03 241.47C597.04 241.43 597.05 241.37 597.07 241.33C599.13 233.93 600.94 227.84 602.63 222.32C603.52 219.45 604.36 216.73 605.19 214.05C606.83 208.74 608.4 203.62 610 197.85C610.12 197.43 610.23 197.04 610.34 196.63L573.04 197.2C571.34 201.99 569.66 206.81 568.02 211.63C567.2 214.05 566.38 216.47 565.59 218.88C560.43 234.5 552.91 288.28 551.15 302.02C547.8 328.08 549.29 356.09 549.2 384.08H549.19Z" fill="#5E83EA"/>
<path d="M595.82 197.79C595.97 204.15 596.22 209.29 596.46 214.41C596.58 217.05 596.7 219.69 596.8 222.48C596.99 227.81 597.11 233.71 597.07 241.33V241.57C596.97 256.35 597.67 297.79 598.72 307.64C600.83 327.38 614.83 385.42 614.83 385.42C614.83 385.42 637.2 383.13 642.21 382.25C643.17 382.08 644.28 381.87 644.34 381.85C644.35 381.84 631.55 307.95 631.54 307.88C631.52 307.84 635.23 244.48 633.23 217.15C633.05 214.58 632.81 212.06 632.52 209.61C632.03 205.46 631.39 201.53 630.57 197.94H630.41L610 197.85L595.83 197.78L595.82 197.79Z" fill="#5E83EA"/>
<g style="mix-blend-mode:multiply" opacity="0.2">
<path d="M629.14 314.72L639.75 382.61C640.78 382.47 641.62 382.35 642.22 382.24C643.17 382.07 644.29 381.85 644.35 381.84C644.35 381.84 631.56 307.94 631.55 307.87C631.53 307.84 634.22 261.84 633.78 231.33C633.78 231.21 633.78 231.08 633.78 230.96C633.76 229.2 633.72 227.49 633.67 225.85C633.67 225.71 633.66 225.57 633.66 225.43C633.63 224.24 633.58 223.08 633.53 221.97C633.5 221.46 633.48 220.96 633.45 220.47C633.41 219.71 633.37 218.97 633.32 218.26C633.3 217.88 633.27 217.51 633.24 217.15C633.16 215.98 633.06 214.81 632.95 213.66C632.95 213.55 632.94 213.45 632.92 213.34L632.31 205.66C632.22 205.74 632.13 205.8 632.04 205.88C631.78 204.15 631.5 202.46 631.19 200.82C631.12 200.46 631.05 200.11 630.98 199.76C630.92 199.47 630.86 199.17 630.79 198.89C630.73 198.57 630.65 198.26 630.58 197.94H630.42C632.81 229.43 628.9 289.64 627.78 305.68C627.61 308.07 628.63 312.37 629.16 314.72H629.14Z" fill="#5E83EA"/>
</g>
<g style="mix-blend-mode:multiply" opacity="0.2">
<path d="M574.28 386.41C578.53 386.65 580.55 386.93 580.55 386.93C580.55 386.93 582.71 307.69 582.63 307.18C582.5 306.19 590.49 264.93 597.02 241.46C596.47 240.19 595.99 239.17 595.57 238.46C595.57 238.46 595.57 238.45 595.56 238.45C594.87 237.22 594.35 236.85 594.13 237.49C586.72 257.58 574.81 382.06 574.29 386.41H574.28Z" fill="#5E83EA"/>
</g>
<path d="M639.62 382.34L639.37 380.89" stroke="#355FFC" stroke-width="0.88" stroke-linecap="round" stroke-linejoin="round"/>
<path d="M638.61 376.3L627.46 309.52C627.46 309.52 631.77 226.77 629.79 198.03" stroke="#355FFC" stroke-width="0.88" stroke-linecap="round" stroke-linejoin="round"/>
<path d="M629.6 195.71C629.55 195.2 629.5 194.72 629.45 194.25" stroke="#355FFC" stroke-width="0.88" stroke-linecap="round" stroke-linejoin="round"/>
<path d="M594.31 236L579.2 307.45L573.87 383.3" stroke="#355FFC" stroke-width="0.88" stroke-linecap="round" stroke-linejoin="round"/>
<path d="M491.63 181.63C491.63 181.63 489.48 190.86 495.56 200.49C495.56 200.49 497.61 196.98 496.02 190.58C494.42 184.18 491.63 181.64 491.63 181.64V181.63Z" fill="#D12B0B"/>
<path d="M491.59 184.94C492.31 189.12 493.45 193.25 494 197.45C492.45 199.18 489.95 201.43 487.86 202.18C487.34 202.37 486.83 202.52 486.32 202.65C486.17 202.69 485.81 202.69 485.3 202.66C482.55 202.52 475.46 201.59 474.1 200.96L474.93 184.18C476.33 183.63 481.95 182.35 483.94 182.73C486.27 183.17 489.36 184.11 491.58 184.93L491.59 184.94Z" fill="#FFAB88"/>
<path d="M490.1 185.38L499.22 183.01L501.67 196.16L491.18 197.96L490.1 185.38Z" fill="#FFAB88"/>
<g style="mix-blend-mode:multiply" opacity="0.1">
<path d="M480.55 200.59C479.46 198.75 478.94 194.91 478.8 192.77C479.26 192.47 479.73 192.2 480.2 191.97C480.34 191.9 480.69 191.82 481.19 191.73C481.41 192.63 481.56 193.54 481.69 193.94C482.62 197.01 483.73 200.05 485.66 202.66C483.53 202.56 481.66 202.45 480.55 200.58V200.59Z" fill="#D3835B"/>
</g>
<path d="M468.02 186.3C466.92 187 466.06 188.22 466.19 189.5C466.32 190.78 467.75 191.87 468.96 191.38C467.82 191.56 466.98 192.78 467.15 193.9C467.33 195.03 468.42 195.91 469.57 195.94C468.63 196.48 468.19 197.73 468.58 198.72C468.98 199.71 470.16 200.32 471.21 200.07C470.36 200.4 469.75 201.27 469.75 202.18C469.75 203.08 470.36 203.95 471.21 204.27C471.8 204.49 472.46 204.45 473.09 204.42C473.75 204.38 480.87 203.05 481.64 202.61C482.41 202.17 482.95 201.23 482.64 200.42C482.24 199.37 480.16 199.52 477.31 199.44C478.71 199.23 480.07 198.82 481.36 198.23C481.87 198 482.39 197.71 482.68 197.24C483.21 196.38 482.75 195.2 481.94 194.6C481.13 194 478.7 193.89 477.7 193.73C479.46 193.88 482.51 192 482.16 190.28C481.81 188.57 479.4 187.75 476.71 188.56C478.15 188.01 479.74 187.42 480.27 186.6C480.69 185.94 480.39 185.01 479.77 184.52C479.16 184.03 478.33 183.9 477.54 183.89C475.22 183.85 470 185.07 468.03 186.31L468.02 186.3Z" fill="#FFAB88"/>
<path d="M464 192.59C462.5 192.96 460.86 193.38 459.96 193.01C459.23 192.71 458.95 191.77 459.18 191.02C459.41 190.27 460.01 189.69 460.65 189.23C462.53 187.87 467.19 186.14 470.31 185.29C471.57 184.95 472.31 185.45 472.93 186.58C473.55 187.71 472.97 190.36 471.7 190.64L463.99 192.59H464Z" fill="#FFAB88"/>
<path d="M471.22 200.08C471.22 200.08 472.76 200.03 477.31 199.44C477.31 199.44 474.25 200.73 471.22 200.08Z" fill="#D3835B"/>
<path d="M469.57 195.95C469.57 195.95 473.7 194.27 477.69 193.72C477.69 193.72 471.17 195.91 469.57 195.95Z" fill="#D3835B"/>
<path d="M468.57 191.49C468.57 191.49 472.7 189.81 476.69 189.26C476.69 189.26 470.17 191.45 468.57 191.49Z" fill="#D3835B"/>
<g opacity="0.2">
<g style="mix-blend-mode:multiply">
<path d="M479.28 200.52C479.28 200.32 479.29 200.08 479.47 199.99C479.53 199.96 479.6 199.95 479.67 199.94C480.14 199.89 480.61 199.89 481.07 199.94C481.37 199.98 481.67 200.04 481.93 200.19C482.19 200.34 482.4 200.59 482.43 200.89C482.48 201.34 482.12 201.74 481.74 202C481.16 202.4 480.48 202.67 479.79 202.76C479.26 202.83 479.3 200.8 479.29 200.52H479.28Z" fill="#D3835B"/>
</g>
<g style="mix-blend-mode:multiply">
<path d="M478.52 195.66C478.52 195.44 478.53 195.16 478.73 195.06C478.8 195.02 478.88 195.01 478.96 195C479.49 194.94 480.03 194.94 480.55 195C480.89 195.04 481.23 195.11 481.53 195.28C481.82 195.45 482.11 195.66 482.18 196.5C482.22 197.02 481.63 197.45 481.2 197.75C480.54 198.21 479.93 198.23 479.09 198.2C478.49 198.18 478.53 195.97 478.52 195.65V195.66Z" fill="#D3835B"/>
</g>
<g style="mix-blend-mode:multiply">
<path d="M477.87 190.15C477.87 189.93 477.88 189.65 478.08 189.55C478.15 189.51 478.23 189.5 478.31 189.49C478.84 189.43 479.38 189.43 479.9 189.49C480.24 189.53 480.58 189.6 480.87 189.77C481.16 189.94 481.45 190.15 481.52 190.99C481.56 191.51 480.97 191.94 480.54 192.24C479.88 192.7 479.27 192.72 478.43 192.69C477.83 192.67 477.87 190.46 477.86 190.14L477.87 190.15Z" fill="#D3835B"/>
</g>
</g>
<g style="mix-blend-mode:multiply" opacity="0.5">
<path d="M484.23 185.17C484 186.32 484.76 191.95 483.52 190.77C482.35 189.66 481.32 189.47 479.95 189.9C478.74 190.28 478.74 192.04 478.34 193.23C478.02 194.18 477.54 195.07 476.92 195.85C476.52 196.35 475.67 196.79 475.07 197.01C474.47 197.23 473.72 197.15 473.29 196.67C473.06 196.41 472.95 196.09 472.91 195.74C472.87 195.44 472.89 195.12 472.91 194.82C473.02 193.36 473.21 191.91 473.48 190.47C473.74 189.08 474.68 184.24 476.27 183.23C477.92 182.19 481.31 182.69 482.53 182.86C485.45 183.26 484.43 184.12 484.22 185.17H484.23Z" fill="#B3B3B3"/>
</g>
<path d="M486.5 184.51C486.5 185.11 484.79 192.08 483.58 190.93C482.44 189.86 480.99 188.92 479.65 189.35C478.47 189.72 478.46 191.44 478.06 192.61C477.75 193.53 477.27 194.41 476.66 195.17C476.27 195.66 475.8 196.12 475.22 196.34C474.63 196.56 473.89 196.48 473.48 196.02C473.25 195.77 473.15 195.45 473.12 195.11C473.09 194.82 473.1 194.51 473.12 194.21C473.24 192.79 473.43 191.37 473.7 189.97C473.96 188.61 474.9 183.89 476.46 182.91C478.08 181.89 481.39 182.36 482.58 182.52C485.43 182.9 486.49 183.77 486.5 184.51Z" fill="#FFAB88"/>
<g style="mix-blend-mode:multiply" opacity="0.2">
<path d="M475.56 193.33C475.31 194.21 474.04 195.24 473.11 195.11C473.08 194.82 473.09 194.51 473.11 194.21C473.23 192.79 473.42 191.37 473.69 189.97C474.03 190.01 474.37 190.19 474.62 190.41C475.44 191.12 475.85 192.29 475.55 193.32L475.56 193.33Z" fill="#D3835B"/>
</g>
<path d="M495.57 200.49C496.37 200.38 542.87 198.37 551.07 191.38C561.08 182.84 577.28 143.22 577.28 143.22L579.86 120.1C579.86 120.1 569.41 120.88 563.29 126.12C550.74 136.87 535.94 173.3 535.94 173.3C514.73 177.93 492.57 181.14 491.65 181.64C495.24 187.66 496.02 198.8 495.58 200.5L495.57 200.49Z" fill="#F53102"/>
<g style="mix-blend-mode:screen" opacity="0.75">
<path d="M495.57 200.49C496.53 200.45 498.87 200.33 500.14 200.22C500.14 200.22 500.16 195.46 499.18 189.74C498.33 184.79 496.22 180.75 496.22 180.75C494.97 180.96 492.8 181.29 491.64 181.63C494.61 185.56 496.24 198.72 495.57 200.49Z" fill="#F53102"/>
</g>
<path d="M563.92 225.5C577.51 227.53 601.75 227.57 619.76 227.53C639.9 226.67 634.88 229.37 633.4 214.57C627.59 184.18 628.17 142.25 624.31 117.24C616.5 115.63 604.09 116.43 590.27 118.15C582.13 119.16 570.3 122.19 570.3 122.19C570.3 122.47 568.35 185.29 568.35 185.29C568.35 185.29 564.94 216.01 563.94 225.5H563.92Z" fill="#F53102"/>
<g style="mix-blend-mode:multiply" opacity="0.8">
<path d="M583.63 227.09C595.43 227.56 608.75 227.57 619.75 227.54C639.89 226.68 634.88 229.38 633.39 214.58C629.8 195.82 628.34 172.85 627.07 151.99C626.93 151.93 625.28 157.34 625.02 159.21C623.7 168.77 626.33 176.76 620.97 185.5C618.73 189.14 595.04 216.74 592.33 219.29C590.52 221.01 588.11 221.98 586.23 223.63C585.13 224.6 584.26 225.78 583.63 227.09Z" fill="#F53102"/>
</g>
<path d="M575.01 81.42C590.39 85.47 588.38 76.13 601.03 90.45C607.95 92.21 609.29 69.33 600.37 69.77C600.62 68.16 600.42 66.46 599.77 64.97C598.91 62.98 597.27 61.33 595.27 60.46C592.08 59.07 586.45 59.16 584.86 62.63C583.73 61.78 582.46 61.18 581.11 60.8C575.58 59.25 569.58 61.63 567.24 66.88C566.88 67.69 566.61 68.55 566.46 69.43C566.15 69.29 565.83 69.19 565.49 69.13C563.98 68.84 562.6 70.11 562.68 71.64C563.02 77.68 569.38 79.95 575.01 81.43V81.42Z" fill="#211D19"/>
<path d="M565.9 76.2C565.9 76.2 601.69 63.31 602.83 79.52C602.99 81.77 604.49 98.31 600.52 99.58C598.26 100.3 583.46 104.78 579.9 103.96C578.24 103.58 566.32 93.85 565.58 89.23C565.15 87.23 565.9 76.2 565.9 76.2Z" fill="#211D19"/>
<path d="M582.84 120.78C582.41 113.91 582.06 103.74 582.06 103.74C582.06 103.74 595.49 98.77 599.78 97.08C600.37 99.68 602.02 111.81 602.71 116.77C602.91 118.23 602.4 119.71 601.32 120.72C599.64 122.29 597.21 123.83 594.07 124.44C590.5 125.14 583.05 124.18 582.84 120.78Z" fill="#FFAB88"/>
<g style="mix-blend-mode:multiply" opacity="0.3">
<path d="M582.63 116.78C582.3 110.17 582.06 103.74 582.06 103.74C582.06 103.74 595.57 98.6 599.85 96.92C600.15 113.58 582.87 116.66 582.63 116.78Z" fill="#FFAB88"/>
</g>
<path d="M601.01 93.88C601.07 100.31 599.75 105.32 594.01 108.28C588.28 111.24 581.29 111.75 575.18 109.64C571.91 108.51 568.74 106.5 567.28 103.4C566.9 102.59 566.66 101.74 566.48 100.87C566.29 99.91 566.2 98.94 566.12 97.97C566.06 97.19 566.02 96.4 565.98 95.63C565.95 94.73 565.93 93.57 565.93 92.22C565.93 85.6 566.38 79.01 567.27 74.67L601.48 75.43L601 93.9L601.01 93.88Z" fill="#FFAB88"/>
<path d="M570.85 86.4C571.59 86.03 572.49 85.97 573.26 86.28C573.73 86.47 574.19 86.84 574.23 87.35C574.24 87.49 574.21 87.65 574.09 87.73C574.02 87.78 573.93 87.78 573.84 87.79C573.15 87.82 572.46 87.76 571.78 87.84C571.23 87.91 570.7 88.07 570.21 88.32C569.95 88.45 568.88 88.88 569.43 87.82C569.76 87.19 570.19 86.75 570.87 86.41L570.85 86.4Z" fill="#211D19"/>
<path d="M589.15 86.4C588.41 86.03 587.51 85.97 586.74 86.28C586.27 86.47 585.81 86.84 585.77 87.35C585.76 87.49 585.79 87.65 585.91 87.73C585.98 87.78 586.07 87.78 586.16 87.79C586.85 87.82 587.54 87.76 588.22 87.84C588.77 87.91 589.3 88.07 589.79 88.32C590.05 88.45 591.12 88.88 590.57 87.82C590.24 87.19 589.81 86.75 589.13 86.41L589.15 86.4Z" fill="#211D19"/>
<path d="M571.65 91.01C571.77 91.32 572.05 91.53 572.35 91.66C572.95 91.91 573.74 91.84 574.11 91.28C574.7 90.39 574.46 89.14 573.03 88.96C572.04 88.84 571.31 90.11 571.65 91.01Z" fill="#211D19"/>
<path d="M585.58 91.01C585.7 91.32 585.98 91.53 586.28 91.66C586.88 91.91 587.67 91.84 588.04 91.28C588.63 90.39 588.39 89.14 586.96 88.96C585.97 88.84 585.24 90.11 585.58 91.01Z" fill="#211D19"/>
<g style="mix-blend-mode:multiply">
<path d="M579.6 86.87C579.11 89.04 578.83 90.12 578.24 92.94C578.1 93.59 577.82 94.11 578.2 94.77C578.53 95.35 579.83 95.75 580.62 94.69" stroke="#E9B0A7" stroke-width="0.62" stroke-linecap="round" stroke-linejoin="round"/>
</g>
<g style="mix-blend-mode:multiply" opacity="0.3">
<path d="M596.28 91.74C597.7 92.22 598.55 93.58 598.73 94.93C598.94 96.48 598.34 98.15 597.03 99.18C595.72 100.22 593.7 100.54 592.14 99.83C590.81 99.22 589.94 97.93 589.81 96.59C589.69 95.29 590.31 93.5 591.34 92.53C592.47 91.47 594.81 91.25 596.27 91.74H596.28Z" fill="#FFAB88"/>
</g>
<g style="mix-blend-mode:multiply" opacity="0.3">
<path d="M569.09 99.86C568.37 100.43 567.44 100.78 566.48 100.86C566.29 99.9 566.2 98.93 566.12 97.96C566.06 97.18 566.02 96.39 565.98 95.62C565.95 94.72 565.93 93.56 565.93 92.21C566.78 92.12 567.66 92.19 568.34 92.42C569.75 92.9 570.61 94.26 570.79 95.6C571 97.16 570.4 98.82 569.1 99.86H569.09Z" fill="#FFAB88"/>
</g>
<path d="M565.86 89.44C566.33 83.65 568.06 76.83 576.08 76.46C584.04 76.09 591.38 76.19 594.52 80.98C595.26 82.11 595.66 83.43 595.77 84.78C595.94 86.75 596.45 90.76 597.93 91.87C600.26 93.62 601.98 83.41 601.98 83.41L601.95 74.59L566.12 72.78L565.61 82.98L565.87 89.44H565.86Z" fill="#35302B"/>
<path d="M563.21 72.34C565.28 85.02 578.27 72.73 590.63 77.83C596.53 80.27 597.19 85.43 598.94 87.35C600.02 88.54 604.14 86.9 604.58 85.02C609.22 65.14 575.2 65.08 573.42 64.62C571.76 64.19 570 64.3 568.39 64.85C567.42 66.21 566.74 67.77 566.46 69.42C566.46 69.42 566.44 69.42 566.43 69.41C564.74 68.68 562.92 70.19 563.16 72.02C563.17 72.13 563.19 72.24 563.21 72.35V72.34Z" fill="#211D19"/>
<path d="M577.31 99.02C578.11 101.32 582.6 101.02 583.03 98.42L577.31 99.02Z" fill="white"/>
<path d="M598.73 92.99C599.53 94.1 601 94.66 602.39 94.58C603.77 94.51 605.1 93.76 605.86 92.62C606.66 91.42 606.8 89.92 606.79 88.49C606.77 86.91 606.54 85.24 605.53 84.02C605.31 83.75 605.06 83.51 604.74 83.36C604.42 83.21 604.05 83.17 603.7 83.16C601.21 83.1 599.09 84.83 598.27 88.05C598.27 88.05 597.26 90.97 598.73 92.99Z" fill="#FFAB88"/>
<g style="mix-blend-mode:multiply">
<path d="M601.13 92.22C601.4 91.35 601.8 90.51 602.4 89.82C603 89.13 603.81 88.59 604.71 88.4" stroke="#E9B0A7" stroke-width="0.62" stroke-linecap="round" stroke-linejoin="round"/>
<path d="M602.22 87.17C601.89 87.98 602.01 88.95 602.52 89.66" stroke="#E9B0A7" stroke-width="0.62" stroke-linecap="round" stroke-linejoin="round"/>
</g>
<path d="M626.7 152L629.8 188.62L634.97 224.31C634.97 224.31 635.55 226.84 633.13 227.01" stroke="#D12B0B" stroke-width="0.69" stroke-miterlimit="10"/>
<path d="M626.51 147.96C626.51 147.96 627.88 168.87 631.45 182.08C632.58 185.78 648.7 207.6 655.52 192.61C660.31 182.09 643.79 137.74 641.61 132.46C637.51 122.5 631.27 117.58 621.41 116.85L626.51 147.95V147.96Z" fill="#F53102"/>
<path d="M610.75 233.08C610.75 233.08 597.9 225.32 597.05 218.03C597.05 218.03 602.53 220.86 605.15 223.36C607.77 225.86 610.26 230.66 610.76 233.08H610.75Z" fill="#D12B0B"/>
<path d="M590.5 224.23C587.01 225.78 584.52 228.88 582.18 231.86C581.84 232.3 581.62 233.71 581.63 234.28C581.63 234.28 581.63 234.29 581.63 234.3C582.06 234.58 583.91 235.62 584.39 235.48C585.44 235.19 585.01 232.77 586.06 232.48C590.72 231.17 595.66 229.68 598.82 226.06C599.24 225.58 599.63 225.03 599.66 224.4C599.69 223.59 599.09 222.86 598.45 222.42C597.62 221.85 597.01 222.33 596.07 222.59C594.21 223.11 592.28 223.44 590.5 224.23Z" fill="#D3835B"/>
<path d="M597.07 221.71C600.69 224.23 604.05 227.89 607.57 230.55C607.57 230.55 607.57 230.56 607.57 230.57C607.25 232.89 607.17 234.69 604.99 237.83C603.38 240.15 596.56 247.23 595.07 247.78H595.05L580.3 234.41C580.3 234.41 580.29 234.39 580.3 234.38C581.76 232.81 585.15 228.14 586.92 226.95C588.28 226.04 588.8 225.35 590.3 224.68C592.55 223.69 594.79 222.7 597.04 221.71C597.04 221.71 597.05 221.71 597.06 221.71H597.07Z" fill="#FFAB88"/>
<path d="M606.55 232.06L611.94 225.89L600.98 216.58L594.46 224.76L606.55 232.06Z" fill="#FFAB88"/>
<path d="M578.89 237.04C578.45 238.3 578.56 239.83 579.51 240.78C580.46 241.72 582.33 241.7 582.99 240.54C582.18 241.41 582.3 242.92 583.18 243.71C584.05 244.49 585.48 244.52 586.43 243.85C586.45 243.84 586.46 243.85 586.46 243.87C586.09 244.89 586.55 246.14 587.51 246.67C588.43 247.19 589.7 246.97 590.42 246.21C590.44 246.19 590.46 246.21 590.45 246.23C590.06 247.02 590.17 248.02 590.72 248.7C591.31 249.43 592.37 249.74 593.27 249.45C593.89 249.25 594.4 248.81 594.89 248.37C595.4 247.92 600.31 242.33 600.64 241.5C600.97 240.66 600.8 239.56 600.01 239.11C599.02 238.54 597.48 239.89 595.21 241.58C595.19 241.59 595.17 241.58 595.18 241.55C596.11 240.53 596.91 239.39 597.53 238.17C597.79 237.66 598.02 237.1 597.95 236.54C597.81 235.51 596.67 234.86 595.62 234.89C594.67 234.91 592.9 236.11 591.89 236.71C591.87 236.72 591.85 236.69 591.87 236.68C593.27 235.49 594.28 232.37 592.96 231.28C591.62 230.18 589.3 230.91 587.66 233.01C587.64 233.03 587.61 233.01 587.63 232.99C588.38 231.74 589.12 230.43 589.01 229.53C588.92 228.73 588.06 228.18 587.24 228.17C586.42 228.17 585.66 228.59 585.01 229.08C583.1 230.52 579.66 234.81 578.88 237.06L578.89 237.04Z" fill="#FFAB88"/>
<path d="M590.52 246.07C590.52 246.07 591.74 245.05 595.05 241.69C595.05 241.69 593.42 244.67 590.52 246.07Z" fill="#D3835B"/>
<path d="M586.48 243.8C586.48 243.8 588.73 239.83 591.61 236.86C591.61 236.86 587.75 242.76 586.48 243.8Z" fill="#D3835B"/>
<path d="M582.7 240.95C582.7 240.95 585.8 234.71 587.6 233.05C587.6 233.05 584.08 239.91 582.7 240.95Z" fill="#D3835B"/>
<path d="M654.53 194.44C643 208.83 619.91 225.65 610.75 233.08C606.96 224.02 597.25 218.08 597.04 218.03C606.81 208.96 627.53 186.78 634.96 178.92" fill="#F53102"/>
<path d="M626.7 152L628.76 176.35" stroke="#D12B0B" stroke-width="0.69" stroke-miterlimit="10"/>
<g style="mix-blend-mode:screen" opacity="0.75">
<path d="M597.04 218.03C597.25 218.09 606.96 224.02 610.74 233.08C611.69 232.31 612.78 231.44 614 230.49C612.01 226 608.02 219.06 600.9 214.33C599.49 215.72 598.18 216.97 597.04 218.04V218.03Z" fill="#F53102"/>
</g>
<path d="M568.85 151.48L568.33 185.3C568.33 185.3 564.63 217.8 563.95 224.89" stroke="#D12B0B" stroke-width="0.69" stroke-miterlimit="10"/>
<path d="M415.67 0H168.2V155.89H415.67V0Z" fill="#DCF3FF"/>
<path d="M281.05 116.78H189.31V140.84H281.05V116.78Z" fill="white"/>
<path d="M208.81 121.2H193.58V136.42H208.81V121.2Z" fill="#263447"/>
<path d="M230.9 121.2H215.67V136.42H230.9V121.2Z" fill="#438FF3"/>
<path d="M252.99 121.2H237.76V136.42H252.99V121.2Z" fill="#73AAF3"/>
<path d="M275.07 121.2H259.84V136.42H275.07V121.2Z" fill="#96C1F3"/>
<path d="M217.29 85.7H190.74V112.25H217.29V85.7Z" fill="#263447"/>
<path d="M218.11 91.39L211.7 84.98H218.11V91.39Z" fill="#92CEFF"/>
<path d="M189.31 107.36L195.73 113.78H189.31V107.36Z" fill="#92CEFF"/>
<path d="M261.89 112.25H275.02V85.7H261.89V112.25Z" fill="#263447"/>
<path d="M222.76 112.25H235.89V85.7H222.76V112.25Z" fill="#96C1F3"/>
<path d="M235.86 112.25H248.99V85.7H235.86V112.25Z" fill="#73AAF3"/>
<path d="M248.88 112.25H262.01V85.7H248.88V112.25Z" fill="#438FF3"/>
<path d="M282.17 47.82H190.43V71.88H282.17V47.82Z" fill="white"/>
<path d="M209.93 52.24H194.7V67.46H209.93V52.24Z" fill="#F53102"/>
<path d="M232.02 52.24H216.79V67.46H232.02V52.24Z" fill="#F36543"/>
<path d="M254.1 52.24H238.87V67.46H254.1V52.24Z" fill="#F38B73"/>
<path d="M276.19 52.24H260.96V67.46H276.19V52.24Z" fill="#F3A796"/>
<path d="M217.29 16.35H190.74V42.9H217.29V16.35Z" fill="#F53102"/>
<path d="M218.11 21.56L211.7 15.15H218.11V21.56Z" fill="#92CEFF"/>
<path d="M189.31 37.53L195.73 43.95H189.31V37.53Z" fill="#92CEFF"/>
<path d="M235.89 16.27H222.76V42.82H235.89V16.27Z" fill="#F3A796"/>
<path d="M275.01 16.27H261.88V42.82H275.01V16.27Z" fill="#F53102"/>
<path d="M261.91 16.27H248.78V42.82H261.91V16.27Z" fill="#F36543"/>
<path d="M248.9 16.27H235.77V42.82H248.9V16.27Z" fill="#F38B73"/>
<path d="M394.56 116.78H302.82V140.84H394.56V116.78Z" fill="white"/>
<path d="M322.32 121.2H307.09V136.42H322.32V121.2Z" fill="#355FFC"/>
<path opacity="0.9" d="M344.4 121.2H329.17V136.42H344.4V121.2Z" fill="#4368F3"/>
<path d="M366.49 121.2H351.26V136.42H366.49V121.2Z" fill="#738FF3"/>
<path d="M388.58 121.2H373.35V136.42H388.58V121.2Z" fill="#96ABF3"/>
<path d="M393.37 85.7H366.82V112.25H393.37V85.7Z" fill="#355FFC"/>
<path d="M394.56 91.39L388.15 84.98H394.56V91.39Z" fill="#92CEFF"/>
<path d="M365.76 107.36L372.18 113.78H365.76V107.36Z" fill="#92CEFF"/>
<path d="M346.56 112.25H359.69V85.7H346.56V112.25Z" fill="#96ABF3"/>
<path d="M307.43 112.25H320.56V85.7H307.43V112.25Z" fill="#355FFC"/>
<path opacity="0.9" d="M320.53 112.25H333.66V85.7H320.53V112.25Z" fill="#4368F3"/>
<path d="M333.55 112.25H346.68V85.7H333.55V112.25Z" fill="#738FF3"/>
<path d="M394.56 47.82H302.82V71.88H394.56V47.82Z" fill="white"/>
<path d="M322.32 52.24H307.09V67.46H322.32V52.24Z" fill="#FFCC31"/>
<path opacity="0.85" d="M344.4 52.24H329.17V67.46H344.4V52.24Z" fill="#F3C743"/>
<path d="M366.49 52.24H351.26V67.46H366.49V52.24Z" fill="#F3D373"/>
<path d="M388.58 52.24H373.35V67.46H388.58V52.24Z" fill="#F3DB96"/>
<path d="M393.37 16.25H366.82V42.8H393.37V16.25Z" fill="#FFCC31"/>
<path d="M394.56 21.47L388.15 15.05H394.56V21.47Z" fill="#92CEFF"/>
<path d="M365.76 37.43L372.18 43.85H365.76V37.43Z" fill="#92CEFF"/>
<path d="M320.56 16.27H307.43V42.82H320.56V16.27Z" fill="#FFCC31"/>
<path d="M359.68 16.27H346.55V42.82H359.68V16.27Z" fill="#F3DB96"/>
<path d="M346.58 16.27H333.45V42.82H346.58V16.27Z" fill="#F3D373"/>
<path opacity="0.85" d="M333.57 16.27H320.44V42.82H333.57V16.27Z" fill="#F3C743"/>
<path d="M125.78 331.6L118.33 405.37L104.33 402.96C104.33 402.96 99.8799 349.8 98.7699 322.81C98.7299 321.91 95.9399 284.6 88.8299 264.16C82.9599 247.29 79.0299 238.28 74.5599 225.34L109.52 223.62C119.83 251.46 124.21 287.59 125.92 306.88C126.65 315.11 126.6 323.38 125.77 331.6H125.78Z" fill="#E5A173"/>
<path d="M104.09 400.21L104.74 403.03L118.32 405.36C118.32 405.36 119.06 399.38 120.11 387.04L103.03 387.4L104.09 400.21Z" fill="#E95B15"/>
<g style="mix-blend-mode:multiply">
<path d="M119.71 390.49L103.44 390.95" stroke="#E95B15" stroke-width="0.84" stroke-miterlimit="10"/>
</g>
<path d="M156.6 420.46C156.52 420.59 156.43 420.72 156.32 420.85C155.12 422.37 152.58 423.59 150.25 424.46C149.84 424.61 149.43 424.76 149.04 424.89C146.89 425.61 144.6 425.87 142.34 425.66L102.51 422.06C101.09 421.83 97.98 420.72 97.55 419.06C97.41 418.51 97.41 417.93 97.52 417.37C97.69 416.58 98 415.83 98.25 415.06C98.38 414.65 98.5 414.24 98.57 413.82C98.66 413.27 98.67 412.69 98.88 412.17C99.09 411.65 99.56 411.19 100.11 411.21C100.11 411.21 100.12 411.21 100.13 411.21C100.13 411.21 107.33 411.68 116.59 412.33C130.35 413.3 148.67 414.69 154.68 415.59C155.75 415.75 156.43 415.89 156.63 416.02C156.64 416.02 156.65 416.03 156.66 416.04C158.13 417.3 156.6 420.44 156.6 420.44V420.46Z" fill="#355FFC"/>
<path d="M156.75 418.92C155.88 420.57 153.64 420.78 151.77 420.77C146.6 420.73 141.39 420.53 136.32 419.53C135.79 419.42 135.26 419.31 134.73 419.19C132.54 418.68 130.39 417.99 128.17 417.64C126.37 417.35 124.53 417.29 122.74 416.94C120.98 416.59 119.28 415.97 117.55 415.47C117.11 415.34 116.66 415.22 116.22 415.1C112.87 414.23 109.42 413.78 105.96 413.75C104 413.73 101.69 413.69 100.55 412.09C100.36 411.83 100.23 411.54 100.13 411.25C99.72 409.97 100.07 408.46 100.45 407.11C101.23 404.34 102.01 401.56 102.79 398.79C103.05 397.86 103.46 394.96 104.83 395.65C105.76 396.12 105.79 397.99 105.99 398.85C106.35 400.4 107.47 401.73 108.89 402.42C109.32 402.63 109.79 402.78 110.27 402.86C112.13 403.16 114.12 402.36 115.28 400.88C115.39 400.73 115.5 400.58 115.6 400.42C115.78 400.12 115.94 399.78 115.93 399.43C115.92 399.01 115.67 398.64 115.61 398.23C115.52 397.58 115.88 396.97 116.23 396.42C116.63 395.8 117.07 395.14 117.77 394.9C118.66 394.6 119.6 395.08 120.41 395.55C121.79 396.35 123.17 397.15 124.38 398.18C125.28 398.94 126.07 399.82 126.92 400.63C127.15 400.85 127.39 401.07 127.63 401.28C128.08 401.67 128.56 402.03 129.04 402.36C129.73 402.84 130.45 403.28 131.18 403.7C131.36 403.8 131.53 403.91 131.71 404.01C132.46 404.45 133.21 404.88 133.97 405.31C136.45 406.71 138.98 408.05 141.57 409.25C144.61 410.66 147.73 411.88 150.97 412.78C152.24 413.13 153.55 413.45 154.68 414.09C154.95 414.24 155.21 414.42 155.46 414.61C155.94 414.99 156.35 415.49 156.64 416.05C157.11 416.97 157.23 418.03 156.76 418.93L156.75 418.92Z" fill="#92CEFF"/>
<path opacity="0.6" d="M156.75 418.92C155.88 420.57 153.64 420.78 151.77 420.77C146.6 420.73 141.39 420.53 136.32 419.53C137.72 419.34 139.1 419.06 140.44 418.62C141.73 418.2 142.96 417.62 144.26 417.21C146.6 416.46 149.1 416.23 151.56 416.36C152.28 416.4 153.01 416.46 153.69 416.24C154.19 416.08 154.51 415.87 154.69 415.63C155.02 415.2 154.91 414.66 154.68 414.1C154.95 414.25 155.21 414.43 155.46 414.62C155.94 415 156.35 415.5 156.64 416.06C157.11 416.98 157.23 418.04 156.76 418.94L156.75 418.92Z" fill="#5E83EA"/>
<path opacity="0.6" d="M116.49 414.61C116.41 414.78 116.31 414.94 116.2 415.09C112.85 414.22 109.4 413.77 105.94 413.74C103.98 413.72 101.67 413.68 100.53 412.08C99.54 410.67 99.96 408.75 100.43 407.1C101.21 404.33 101.99 401.55 102.77 398.78C103.03 397.85 103.44 394.95 104.81 395.64C105.74 396.11 105.77 397.98 105.97 398.84C106.33 400.39 107.45 401.72 108.87 402.41C109.33 403.16 109.89 403.84 109.77 404.83C109.67 405.65 109.2 406.49 109.5 407.27C109.8 408.04 110.71 408.34 111.51 408.57C112.94 408.98 114.4 409.51 115.47 410.55C116.54 411.59 117.12 413.26 116.48 414.61H116.49Z" fill="#5E83EA"/>
<g style="mix-blend-mode:multiply" opacity="0.4">
<path d="M141.57 409.25C141.09 409.54 140.52 409.72 139.98 409.88C138.51 410.33 136.96 410.77 135.46 410.43C133.05 409.88 131.52 407.51 129.34 406.35C127.77 405.52 125.93 405.36 124.15 405.3C122.37 405.23 120.55 405.24 118.86 404.68C116.96 404.05 115.83 402.61 115.27 400.87C115.38 400.72 115.49 400.57 115.59 400.41C115.77 400.11 115.93 399.77 115.92 399.42C115.91 399 115.66 398.63 115.6 398.22C115.51 397.57 115.87 396.96 116.22 396.41C116.62 395.79 117.06 395.13 117.76 394.89C118.65 394.59 119.59 395.07 120.4 395.54C121.78 396.34 123.16 397.14 124.37 398.17C125.52 399.14 126.49 400.3 127.63 401.27C128.87 402.34 130.29 403.18 131.71 404.01C134.92 405.88 138.2 407.68 141.57 409.24V409.25Z" fill="#92CEFF"/>
</g>
<path d="M126.27 403.77C127.25 402.76 128.72 402.21 130.16 402.31" stroke="#355FFC" stroke-width="0.95" stroke-linecap="round" stroke-linejoin="round"/>
<path d="M131.41 406.68C132.39 405.67 133.86 405.12 135.3 405.22" stroke="#355FFC" stroke-width="0.95" stroke-linecap="round" stroke-linejoin="round"/>
<path d="M128.55 405.09C129.53 404.08 131 403.53 132.44 403.63" stroke="#355FFC" stroke-width="0.95" stroke-linecap="round" stroke-linejoin="round"/>
<path d="M123.78 402.07C124.76 401.06 126.23 400.51 127.67 400.61" stroke="#355FFC" stroke-width="0.95" stroke-linecap="round" stroke-linejoin="round"/>
<path d="M121.27 400.57C122.25 399.56 123.72 399.01 125.16 399.11" stroke="#355FFC" stroke-width="0.95" stroke-linecap="round" stroke-linejoin="round"/>
<path d="M91.08 262.19C91.96 275.23 81.77 316.59 81.77 316.59C81.77 316.59 62.82 401.18 62.58 402.67C62.56 402.8 51.38 404.14 50.24 401.98C50.07 401.66 49.87 394.81 49.77 392.98C49.58 389.67 49.48 384.16 49.45 377.42C49.32 349.08 53.03 314.79 53.03 314.79C53.03 314.79 55.06 255.83 59.09 225.54L62.47 225.32L77.3 224.36L89.84 223.55C90.34 237.68 89.93 245.07 91.07 262.18L91.08 262.19Z" fill="#E5A173"/>
<path d="M50.24 401.97C51.37 404.13 62.56 402.8 62.57 402.66C62.64 402.21 63.74 397.36 66.13 386.6L49.49 385.34C49.54 389.9 49.62 390.49 49.77 392.98C49.88 394.81 50.07 401.65 50.24 401.97Z" fill="#E95B15"/>
<g style="mix-blend-mode:multiply">
<path d="M65.49 389.07L49.65 388.06" stroke="#E95B15" stroke-width="0.84" stroke-miterlimit="10"/>
</g>
<path d="M100.47 419.5C100.38 419.63 100.28 419.75 100.17 419.88C98.89 421.33 96.29 422.42 93.91 423.16C93.49 423.29 93.07 423.41 92.68 423.52C90.49 424.12 88.2 424.26 85.95 423.93L46.38 418.18C44.97 417.87 41.83 416.35 41.59 414.92C41.49 414.36 41.51 413.79 41.65 413.24C41.86 412.46 42.21 411.73 42.51 410.98C42.67 410.58 42.81 410.18 42.9 409.76C43.02 409.21 43.06 408.64 43.3 408.13C43.53 407.63 44.03 407.19 44.58 407.24C44.58 407.24 44.59 407.24 44.6 407.24C44.6 407.24 51.76 408.1 60.97 409.25C74.66 410.97 92.87 413.35 98.83 414.57C99.89 414.79 100.56 414.97 100.75 415.1C100.76 415.1 100.77 415.11 100.78 415.12C102.18 416.46 100.48 419.51 100.48 419.51L100.47 419.5Z" fill="#355FFC"/>
<path d="M100.7 417.97C99.74 419.57 97.49 419.66 95.62 419.55C90.46 419.23 85.27 418.75 80.26 417.47C79.73 417.34 79.21 417.19 78.69 417.04C76.53 416.41 74.42 415.61 72.22 415.14C70.44 414.76 68.61 414.59 66.84 414.15C65.1 413.71 63.44 413 61.74 412.4C61.31 412.25 60.87 412.1 60.43 411.96C57.13 410.91 53.71 410.27 50.25 410.05C48.29 409.93 45.99 409.76 44.94 408.1C44.77 407.83 44.65 407.54 44.57 407.24C44.23 405.94 44.66 404.45 45.11 403.12C46.04 400.39 46.97 397.67 47.9 394.94C48.21 394.02 48.78 391.15 50.11 391.91C51.02 392.43 50.95 394.3 51.1 395.17C51.37 396.73 52.42 398.13 53.8 398.89C54.22 399.12 54.68 399.3 55.15 399.41C56.99 399.81 59.02 399.12 60.26 397.7C60.38 397.56 60.5 397.41 60.6 397.26C60.8 396.97 60.98 396.64 60.98 396.29C60.98 395.87 60.76 395.49 60.73 395.07C60.67 394.42 61.07 393.83 61.45 393.29C61.88 392.69 62.36 392.06 63.07 391.86C63.97 391.6 64.89 392.14 65.67 392.65C67 393.52 68.34 394.4 69.49 395.49C70.35 396.3 71.09 397.22 71.9 398.08C72.12 398.32 72.35 398.55 72.58 398.77C73.01 399.18 73.46 399.56 73.93 399.93C74.59 400.45 75.29 400.92 75.99 401.39C76.16 401.5 76.33 401.62 76.5 401.73C77.23 402.21 77.96 402.68 78.69 403.15C81.1 404.68 83.55 406.15 86.06 407.49C89.02 409.06 92.07 410.45 95.25 411.52C96.5 411.94 97.79 412.33 98.88 413.03C99.14 413.2 99.4 413.38 99.63 413.59C100.09 414 100.47 414.52 100.73 415.09C101.15 416.03 101.22 417.1 100.69 417.97H100.7Z" fill="#92CEFF"/>
<path opacity="0.6" d="M100.7 417.97C99.74 419.57 97.49 419.66 95.62 419.55C90.46 419.23 85.27 418.75 80.26 417.47C81.67 417.35 83.06 417.15 84.43 416.78C85.74 416.43 87 415.92 88.32 415.57C90.7 414.94 93.2 414.86 95.65 415.12C96.36 415.19 97.09 415.3 97.79 415.12C98.3 414.98 98.63 414.8 98.82 414.57C99.18 414.15 99.09 413.62 98.89 413.04C99.15 413.21 99.41 413.39 99.64 413.6C100.1 414.01 100.48 414.53 100.74 415.1C101.16 416.04 101.23 417.11 100.7 417.98V417.97Z" fill="#5E83EA"/>
<path opacity="0.6" d="M60.7299 411.49C60.6399 411.66 60.5299 411.81 60.4199 411.96C57.1199 410.91 53.6999 410.27 50.2399 410.05C48.2799 409.93 45.9799 409.76 44.9299 408.1C44.0099 406.64 44.5399 404.75 45.0999 403.12C46.0299 400.39 46.9599 397.67 47.8899 394.94C48.1999 394.02 48.7699 391.15 50.0999 391.91C51.0099 392.43 50.9399 394.3 51.0899 395.17C51.3599 396.73 52.4099 398.13 53.7899 398.89C54.2099 399.66 54.7299 400.37 54.5599 401.36C54.4199 402.18 53.8999 402.99 54.1599 403.78C54.4199 404.56 55.3099 404.91 56.0899 405.18C57.4999 405.67 58.9199 406.28 59.9299 407.37C60.9399 408.47 61.4299 410.17 60.7199 411.48L60.7299 411.49Z" fill="#5E83EA"/>
<g style="mix-blend-mode:multiply" opacity="0.4">
<path d="M86.06 407.48C85.56 407.74 84.99 407.89 84.44 408.02C82.95 408.38 81.37 408.75 79.89 408.33C77.51 407.65 76.12 405.2 74 403.92C72.47 403 70.65 402.75 68.88 402.59C67.11 402.43 65.29 402.33 63.63 401.68C61.77 400.95 60.72 399.45 60.25 397.69C60.37 397.55 60.49 397.4 60.59 397.25C60.79 396.96 60.97 396.63 60.97 396.28C60.97 395.86 60.75 395.48 60.72 395.06C60.66 394.41 61.06 393.82 61.44 393.28C61.87 392.68 62.35 392.05 63.06 391.85C63.96 391.59 64.88 392.13 65.66 392.64C66.99 393.51 68.33 394.39 69.48 395.48C70.57 396.51 71.48 397.72 72.56 398.76C73.74 399.9 75.11 400.82 76.48 401.72C79.59 403.76 82.76 405.73 86.04 407.48H86.06Z" fill="#92CEFF"/>
</g>
<path d="M71.09 401.18C72.12 400.23 73.62 399.76 75.05 399.93" stroke="#355FFC" stroke-width="0.95" stroke-linecap="round" stroke-linejoin="round"/>
<path d="M76.0601 404.37C77.0901 403.42 78.5901 402.95 80.0201 403.12" stroke="#355FFC" stroke-width="0.95" stroke-linecap="round" stroke-linejoin="round"/>
<path d="M73.29 402.63C74.32 401.68 75.82 401.21 77.25 401.38" stroke="#355FFC" stroke-width="0.95" stroke-linecap="round" stroke-linejoin="round"/>
<path d="M68.6901 399.36C69.7201 398.41 71.2201 397.94 72.6501 398.11" stroke="#355FFC" stroke-width="0.95" stroke-linecap="round" stroke-linejoin="round"/>
<path d="M66.26 397.73C67.29 396.78 68.79 396.31 70.22 396.48" stroke="#355FFC" stroke-width="0.95" stroke-linecap="round" stroke-linejoin="round"/>
<path d="M72.87 122.68C67.98 121.61 65.41 116.14 67.78 111.74C67.96 111.4 68.16 111.07 68.37 110.75C69 109.78 69.75 108.86 70.1 107.76C70.73 105.75 69.89 103.6 69.94 101.49C69.97 100.12 70.4 98.76 71.16 97.61C71.78 96.67 72.61 95.88 73.14 94.89C74.1 93.1 73.94 90.96 74.1 88.94C74.57 82.89 78.32 77.93 83.65 75.04C88.98 72.15 95.84 72.61 101.16 75.53C106.42 74.87 111.75 75.41 115.32 79.32C121.74 86.35 119.46 91.28 120.81 96.62C121.52 99.42 123.31 102.03 123.09 104.91C122.96 106.56 122.16 108.12 122.12 109.77C122.07 111.69 123.04 113.46 123.68 115.27C123.69 115.3 123.7 115.33 123.71 115.36C125.43 120.32 121.92 125.58 116.7 126.12C110.75 126.74 101.75 127.15 91.67 125.83C83.18 124.72 77.02 123.57 72.88 122.66L72.87 122.68Z" fill="#1B2433"/>
<path d="M100.84 131.43C100.77 124.71 101.2 114.71 101.2 114.71C101.2 114.71 87.15 104.69 82.91 103.14C82.4 105.7 81.53 127.41 80.73 134.15C80.86 149.49 95.31 157.64 102.17 158.97C101.76 158.89 100.87 134.78 100.84 131.44V131.43Z" fill="#E5A173"/>
<g style="mix-blend-mode:multiply" opacity="0.15">
<path d="M100.84 131.43C100.77 124.71 101.2 114.71 101.2 114.71C101.2 114.71 87.16 104.71 82.92 103.16C82.41 105.72 81.54 127.41 80.73 134.15C80.86 149.49 95.31 157.64 102.17 158.97C101.76 158.89 100.87 134.78 100.84 131.44V131.43Z" fill="#E5A173"/>
</g>
<path d="M81.83 105.44C82.1 113.2 83.29 117.44 89.26 120.33C95.23 123.24 102.43 123.58 108.67 121.26C112.01 120.02 114.34 117.89 115.76 114.67C116.13 113.82 116.36 112.95 116.53 112.04C116.53 112 116.55 111.94 116.55 111.9C116.7 110.95 116.77 110 116.83 109.05C116.87 108.25 116.9 107.44 116.91 106.63C116.92 105.7 116.91 104.51 116.88 103.11V103.07C116.71 96.25 116.95 88.95 115.93 84.52L80.72 85.16L81.83 105.42V105.44Z" fill="#E5A173"/>
<path d="M112.24 97.05C111.4 96.66 110.4 96.62 109.55 96.98C109.03 97.2 108.53 97.63 108.5 98.19C108.5 98.35 108.53 98.53 108.67 98.61C108.75 98.66 108.86 98.67 108.95 98.67C109.72 98.69 110.49 98.6 111.25 98.67C111.86 98.73 112.46 98.9 113.02 99.16C113.31 99.3 114.52 99.75 113.88 98.58C113.5 97.88 113 97.4 112.24 97.05Z" fill="#11111E"/>
<path d="M93.1899 97.51C94.0099 97.08 95.0099 96.99 95.8699 97.31C96.3999 97.5 96.9199 97.91 96.9799 98.47C96.9999 98.63 96.9599 98.81 96.8299 98.9C96.7499 98.95 96.6499 98.97 96.5499 98.97C95.7799 99.03 95.0099 98.97 94.2499 99.08C93.6399 99.17 93.0499 99.37 92.5099 99.66C92.2299 99.81 91.0399 100.32 91.6199 99.12C91.9699 98.41 92.4399 97.9 93.1799 97.51H93.1899Z" fill="#11111E"/>
<path d="M111.8 102.01C111.69 102.34 111.4 102.56 111.1 102.69C110.49 102.97 109.68 102.91 109.28 102.34C108.65 101.44 108.86 100.15 110.33 99.93C111.35 99.78 112.13 101.07 111.8 102.01Z" fill="#11111E"/>
<path d="M97.11 102.36C97 102.69 96.71 102.91 96.41 103.04C95.8 103.32 94.99 103.26 94.59 102.69C93.96 101.79 94.17 100.5 95.64 100.28C96.66 100.13 97.44 101.42 97.11 102.36Z" fill="#11111E"/>
<g style="mix-blend-mode:multiply" opacity="0.3">
<path d="M86.52 103.36C85.07 103.89 84.23 105.31 84.08 106.7C83.91 108.31 84.56 110 85.93 111.04C87.3 112.08 89.39 112.36 90.98 111.58C92.34 110.92 93.2 109.57 93.29 108.19C93.38 106.84 92.7 105.02 91.61 104.05C90.42 102.99 88.01 102.82 86.52 103.36Z" fill="#E5A173"/>
</g>
<g style="mix-blend-mode:multiply" opacity="0.3">
<path d="M114.69 111.06C115.22 111.46 115.86 111.75 116.54 111.91C116.69 110.96 116.76 110.01 116.82 109.06C116.86 108.26 116.89 107.45 116.9 106.64C116.91 105.71 116.9 104.52 116.87 103.12V103.08C116.29 103.1 115.74 103.21 115.28 103.37C113.84 103.9 112.99 105.32 112.84 106.71C112.67 108.32 113.32 110.01 114.69 111.05V111.06Z" fill="#E5A173"/>
</g>
<g style="mix-blend-mode:multiply">
<path d="M102.91 96.74C102.91 96.74 102.84 99.87 105.23 103.6C106.7 105.9 103.83 106.62 102.6 106.31" stroke="#E9B0A7" stroke-width="0.58" stroke-linecap="round" stroke-linejoin="round"/>
</g>
<path d="M99.8199 108.74C99.8599 108.97 99.9099 109.18 99.9899 109.37C100.13 109.72 100.33 110.02 100.57 110.27C100.68 110.39 100.81 110.49 100.94 110.59C101 110.63 101.06 110.67 101.13 110.71C102.28 111.42 103.94 111.38 105.06 110.64C105.08 110.64 105.1 110.62 105.11 110.61C105.24 110.53 105.35 110.44 105.46 110.33C105.72 110.09 105.94 109.79 106.08 109.45C106.17 109.24 106.23 109.01 106.26 108.77C106.29 108.52 106.1 108.3 105.85 108.31L100.22 108.26C99.9699 108.26 99.7699 108.48 99.8099 108.73L99.8199 108.74Z" fill="#1B2433"/>
<path d="M100.94 110.6C101 110.64 101.06 110.68 101.13 110.72C102.28 111.43 103.94 111.39 105.06 110.65C105.08 110.65 105.1 110.63 105.11 110.62C104.67 110.49 103.92 110.36 103.17 110.35C103.15 110.35 103.12 110.35 103.09 110.35C103.07 110.35 103.04 110.35 103.02 110.35C102.28 110.34 101.42 110.47 100.94 110.6Z" fill="#F97F8B"/>
<path d="M149.63 147.88C149.63 147.88 152.31 148.15 156.59 150.69C160.87 153.24 162.52 155.14 162.52 155.14C162.52 155.14 157.78 155.03 154.95 153.15C152.12 151.27 149.63 147.88 149.63 147.88Z" fill="#FFA733"/>
<path d="M145.8 155.16C145.8 155.16 150.14 149 152.58 145.54C155.7 147.6 157.73 148.12 162.29 151.17C160.98 153.85 157.15 162.2 157.15 162.2" fill="#E5A173"/>
<path d="M152.14 146.21C155.51 147.84 158.73 149.81 162.16 151.31C164.01 150.42 166.52 148.85 167.67 147.25C167.95 146.86 168.21 146.46 168.44 146.06C168.51 145.94 168.6 145.64 168.7 145.2C169.26 142.83 170.19 136.6 169.99 135.29L155.56 131.9C154.75 132.96 152.3 137.41 152.13 139.19C151.93 141.27 151.98 144.13 152.13 146.21H152.14Z" fill="#E5A173"/>
<g style="mix-blend-mode:multiply" opacity="0.1">
<path d="M168.11 140.66C166.82 139.28 163.68 137.9 161.9 137.27C161.53 137.59 161.19 137.92 160.88 138.26C160.79 138.36 160.63 138.64 160.43 139.04C161.14 139.44 161.87 139.8 162.19 140C164.57 141.54 166.88 143.22 168.62 145.49C169.06 143.66 169.41 142.05 168.1 140.65L168.11 140.66Z" fill="#D3835B"/>
</g>
<path d="M159.05 126.55C159.91 125.78 161.16 125.35 162.21 125.78C163.26 126.21 163.84 127.68 163.13 128.59C163.56 127.66 164.8 127.25 165.71 127.67C166.62 128.09 167.1 129.23 166.85 130.22C167.54 129.56 168.7 129.49 169.45 130.06C170.19 130.64 170.42 131.79 169.95 132.62C170.44 131.98 171.33 131.67 172.09 131.89C172.86 132.11 173.44 132.84 173.5 133.64C173.54 134.2 173.35 134.74 173.16 135.27C172.97 135.82 170.1 141.54 169.54 142.08C168.98 142.62 168.05 142.85 167.44 142.39C166.65 141.79 167.28 140.07 167.91 137.63C167.39 138.76 166.71 139.82 165.9 140.77C165.58 141.14 165.21 141.51 164.74 141.64C163.88 141.88 163 141.2 162.68 140.37C162.36 139.54 162.86 137.44 162.98 136.56C162.68 138.09 160.34 140.21 158.97 139.5C157.6 138.79 157.49 136.54 158.84 134.46C158.02 135.55 157.13 136.76 156.31 137C155.64 137.2 154.93 136.71 154.67 136.07C154.41 135.43 154.5 134.69 154.67 134.02C155.2 132.04 157.51 127.91 159.04 126.54L159.05 126.55Z" fill="#E5A173"/>
<path d="M165.37 124.67C166.05 123.49 166.81 122.2 166.71 121.35C166.63 120.66 165.9 120.19 165.21 120.2C164.52 120.2 163.88 120.58 163.33 121.01C161.72 122.28 159.12 125.81 157.64 128.24C157.04 129.22 157.29 129.98 158.09 130.78C158.9 131.58 161.28 131.74 161.84 130.73L165.37 124.67Z" fill="#E5A173"/>
<path d="M169.95 132.62C169.95 132.62 169.53 133.92 167.92 137.63C167.92 137.63 169.76 135.35 169.95 132.62Z" fill="#D3835B"/>
<path d="M166.85 130.21C166.85 130.21 164.42 133.3 162.98 136.55C162.98 136.55 166.43 131.55 166.85 130.21Z" fill="#D3835B"/>
<path d="M163.31 128.28C163.31 128.28 160.88 131.37 159.44 134.62C159.44 134.62 162.89 129.62 163.31 128.28Z" fill="#D3835B"/>
<g opacity="0.2">
<g style="mix-blend-mode:multiply">
<path d="M168.36 139.56C168.19 139.51 167.99 139.46 167.86 139.59C167.82 139.63 167.79 139.69 167.77 139.75C167.61 140.13 167.5 140.53 167.43 140.94C167.39 141.2 167.37 141.47 167.43 141.73C167.49 141.99 167.66 142.23 167.9 142.32C168.27 142.47 168.7 142.26 169.01 142C169.49 141.61 169.88 141.1 170.13 140.53C170.32 140.1 168.59 139.64 168.35 139.56H168.36Z" fill="#D3835B"/>
</g>
<g style="mix-blend-mode:multiply">
<path d="M164.42 137.74C164.23 137.68 164 137.63 163.86 137.77C163.81 137.82 163.78 137.89 163.76 137.95C163.58 138.39 163.45 138.84 163.38 139.3C163.33 139.6 163.31 139.91 163.38 140.2C163.45 140.49 163.56 140.78 164.26 141.05C164.69 141.21 165.2 140.81 165.56 140.52C166.11 140.07 166.28 139.56 166.46 138.84C166.59 138.32 164.71 137.83 164.43 137.74H164.42Z" fill="#D3835B"/>
</g>
<g style="mix-blend-mode:multiply">
<path d="M159.91 135.84C159.72 135.78 159.49 135.73 159.35 135.87C159.3 135.92 159.27 135.99 159.25 136.05C159.07 136.48 158.94 136.94 158.87 137.4C158.82 137.7 158.8 138.01 158.87 138.3C158.94 138.59 159.05 138.88 159.75 139.15C160.18 139.31 160.69 138.91 161.05 138.62C161.6 138.17 161.77 137.66 161.95 136.94C162.08 136.42 160.2 135.92 159.92 135.84H159.91Z" fill="#D3835B"/>
</g>
</g>
<g style="mix-blend-mode:multiply" opacity="0.5">
<path d="M154.13 140.02C155.16 140.11 159.75 142.13 159.05 140.79C158.4 139.53 158.48 138.6 159.18 137.55C159.79 136.62 161.29 137.05 162.4 137C163.28 136.96 164.16 136.77 164.97 136.44C165.49 136.23 166.07 135.61 166.41 135.15C166.74 134.69 166.86 134.03 166.56 133.56C166.4 133.3 166.15 133.13 165.86 133.01C165.61 132.91 165.34 132.84 165.08 132.79C163.81 132.53 162.54 132.34 161.25 132.21C160 132.09 155.67 131.71 154.43 132.81C153.14 133.96 152.74 136.96 152.59 138.03C152.22 140.61 153.19 139.95 154.13 140.03V140.02Z" fill="#B3B3B3"/>
</g>
<path d="M153.02 141.79C153.53 141.94 159.86 142.18 159.18 140.88C158.55 139.65 158.11 138.19 158.79 137.16C159.39 136.25 160.86 136.66 161.94 136.61C162.8 136.57 163.66 136.38 164.46 136.05C164.97 135.84 165.48 135.56 165.81 135.11C166.14 134.66 166.25 134.02 165.96 133.56C165.8 133.31 165.56 133.14 165.28 133.03C165.04 132.93 164.77 132.87 164.52 132.82C163.29 132.57 162.04 132.39 160.78 132.27C159.56 132.16 155.33 131.81 154.11 132.89C152.85 134.01 152.44 136.94 152.29 137.99C151.91 140.5 152.4 141.62 153.02 141.8V141.79Z" fill="#E5A173"/>
<g style="mix-blend-mode:multiply" opacity="0.2">
<path d="M163.17 134.66C163.98 134.66 165.16 133.84 165.28 133.02C165.04 132.92 164.77 132.86 164.52 132.81C163.29 132.56 162.04 132.38 160.78 132.26C160.73 132.55 160.8 132.89 160.93 133.16C161.33 134.02 162.22 134.66 163.17 134.66Z" fill="#D3835B"/>
</g>
<path d="M108.41 135.41C108.41 135.41 121.12 138.34 126.07 158.39C127.1 162.58 129.98 177.88 129.98 177.88L149.62 147.87C149.62 147.87 152.23 151.13 154.87 152.64C158.62 154.79 162.51 155.13 162.51 155.13C162.51 155.13 142.14 208.34 128.15 206.76C125.31 206.44 115.97 206.15 109.81 175.54L108.41 135.4V135.41Z" fill="#FFCC31"/>
<path d="M116.91 100.23C116.8 97.05 116.12 93.66 114.44 91.06C111.66 86.77 105.45 89.29 103.79 84.76C101.2 88.21 101.06 88.28 94.54 89.04C87.97 89.81 86.52 99.04 84.26 99.74C84.3 97.1 81.09 96.72 79.85 94.39C78.33 91.51 79.67 86.28 81.5 83.58C83.33 80.89 86.31 79.12 89.45 78.27C92.59 77.42 95.9 77.4 99.15 77.65C102.99 77.94 106.88 78.6 110.3 80.37C113.72 82.14 116.3 82.04 117.62 88.87C117.9 90.31 118.07 91.77 118.04 93.24C117.99 95.5 117.49 98.04 116.92 100.23H116.91Z" fill="#1B2433"/>
<path d="M84.39 99.62C83.83 96.25 81.25 94.6 78.68 94.72C78.31 94.74 77.94 94.78 77.61 94.95C77.29 95.11 77.03 95.37 76.81 95.64C75.81 96.93 75.61 98.65 75.63 100.28C75.65 101.75 75.84 103.3 76.69 104.51C77.5 105.66 78.88 106.41 80.3 106.45C81.72 106.49 83.15 105.83 84.02 104.72C84.02 104.72 84.91 102.83 84.38 99.62H84.39Z" fill="#E5A173"/>
<g style="mix-blend-mode:multiply">
<g style="mix-blend-mode:multiply" opacity="0.6">
<path d="M81.54 103.98C81.24 103.09 80.81 102.23 80.17 101.54C79.54 100.84 78.69 100.31 77.76 100.14" stroke="#E9B0A7" stroke-width="0.58" stroke-linecap="round" stroke-linejoin="round"/>
</g>
<g style="mix-blend-mode:multiply" opacity="0.6">
<path d="M80.3 98.81C80.66 99.63 80.56 100.64 80.05 101.38" stroke="#E9B0A7" stroke-width="0.58" stroke-linecap="round" stroke-linejoin="round"/>
</g>
</g>
<path d="M63.5 197.1C63.15 189.39 62.26 169.75 60.81 160.89C60.81 160.89 73.37 145.17 67.46 129.61C67.39 129.45 69.61 129.27 72.42 129.21C76.24 129.12 80.91 129.31 81.13 129.35C86 136.36 90.44 139.27 94.1 139.17C96.5 139.11 99.69 138.09 100.97 132.5L109.13 135.73L113.56 161.18C114.53 164.47 114.74 168.25 113.6 171.47C112.92 173.35 110.31 176.48 110.31 176.48C110.31 176.48 108.78 196.93 108.6 201.15C137.91 288.4 138.18 369.67 138.18 369.67C138.18 369.67 117.51 370.61 113.11 370.49C105.53 370.29 98.01 368.64 90.42 368.83C83.16 369 76.07 371.28 68.83 371.99C63.08 372.55 44.48 371.21 36.36 369.93C34.86 369.69 33.54 369.46 32.5 369.25C33.01 315.74 59.67 205.97 63.5 197.08V197.1Z" fill="#FFCC31"/>
<g style="mix-blend-mode:multiply" opacity="0.5">
<path d="M84.13 176.16C83.23 176.12 82.29 176.07 81.45 176.16C80.61 176.25 79.88 176.5 79.88 176.83C79.88 177.09 80.33 177.34 80.76 177.56C82.06 178.25 83.37 178.94 85.03 179.52C86.69 180.1 88.74 180.56 90.92 180.66C92.83 180.75 94.68 180.56 96.41 180.33C98.97 179.99 107.48 178.91 102.43 177.39C100.47 176.8 96.64 176.84 94.33 176.71C90.93 176.51 87.53 176.33 84.13 176.16Z" fill="#FFCC31"/>
</g>
<path d="M80.32 124.25L78.91 129.72C78.91 129.72 84.66 141.43 92.75 141.64C100.84 141.85 102.25 133.36 102.25 133.36L102.04 126.54L80.32 124.25Z" fill="#FFCC31"/>
<path d="M102.25 133.36C102.25 133.36 100.09 134.82 92.01 134.7C83.6 134.57 79.01 129.58 79.01 129.58" stroke="#FFA733" stroke-width="0.27" stroke-miterlimit="10"/>
<path d="M101.32 126.46L101.19 133.88" stroke="#FFA733" stroke-width="0.27" stroke-miterlimit="10"/>
<path d="M98.78 126.19L98.41 134.42" stroke="#FFA733" stroke-width="0.27" stroke-miterlimit="10"/>
<path d="M96.23 125.93L95.72 134.62" stroke="#FFA733" stroke-width="0.27" stroke-miterlimit="10"/>
<path d="M93.68 125.66L92.89 134.73" stroke="#FFA733" stroke-width="0.27" stroke-miterlimit="10"/>
<path d="M91.1401 125.39L90.0701 134.62" stroke="#FFA733" stroke-width="0.27" stroke-miterlimit="10"/>
<path d="M88.5901 125.13L87.3201 134.08" stroke="#FFA733" stroke-width="0.27" stroke-miterlimit="10"/>
<path d="M86.05 124.86L84.65 133.23" stroke="#FFA733" stroke-width="0.27" stroke-miterlimit="10"/>
<path d="M83.5 124.59L81.92 131.82" stroke="#FFA733" stroke-width="0.27" stroke-miterlimit="10"/>
<path d="M80.96 124.32L79.53 130.18" stroke="#FFA733" stroke-width="0.27" stroke-miterlimit="10"/>
<g style="mix-blend-mode:multiply" opacity="0.35">
<path d="M63.37 197.4C62.85 185.47 61.96 167.94 60.82 160.94L61.17 160.42C61.4 160.11 61.73 159.65 62.12 159.05L67.65 151.11L68.04 156.67C67.95 164.11 67.76 186.18 68.63 186.41C71.4 187.15 88.36 186.78 95.7 185.83C98.13 185.51 101.74 185.47 103.32 187.61C104.47 189.18 108.8 202.28 108.8 202.28C101.35 209.27 62.61 211.88 62.61 211.88C62.61 211.88 37.41 340.72 36.36 369.95C34.86 369.71 33.54 369.48 32.5 369.27C33 316.32 59.17 207.19 63.38 197.4H63.37Z" fill="#FFCC31"/>
</g>
<path d="M32.49 369.27C33 315.76 59.66 205.99 63.49 197.1C63.14 189.39 62.25 169.75 60.8 160.89" stroke="#FFA733" stroke-width="0.63" stroke-miterlimit="10"/>
<path d="M108.59 201.16C137.9 288.41 138.17 369.68 138.17 369.68" stroke="#FFA733" stroke-width="0.63" stroke-miterlimit="10"/>
<g opacity="0.1">
<path d="M106.7 101.43C106.91 104.71 109.73 107.2 113.01 106.99C116.29 106.78 118.78 103.96 118.57 100.68C118.36 97.4 115.54 94.91 112.26 95.12C108.98 95.33 106.49 98.15 106.7 101.43Z" fill="#A0C7FF"/>
<path d="M89.01 102.55C89.22 105.83 92.04 108.32 95.32 108.11C98.6 107.9 101.09 105.08 100.88 101.8C100.67 98.52 97.85 96.03 94.57 96.24C91.29 96.45 88.8 99.27 89.01 102.55Z" fill="#A0C7FF"/>
</g>
<path d="M106.7 101.43C106.9 104.71 109.73 107.2 113 106.99C116.28 106.79 118.77 103.96 118.56 100.69C118.36 97.41 115.53 94.92 112.26 95.13C108.98 95.33 106.49 98.16 106.7 101.43Z" stroke="white" stroke-width="0.61" stroke-miterlimit="10"/>
<path d="M89.01 102.53C89.21 105.81 92.04 108.3 95.31 108.09C98.59 107.89 101.08 105.06 100.87 101.79C100.67 98.51 97.84 96.02 94.57 96.23C91.29 96.43 88.8 99.26 89.01 102.53Z" stroke="white" stroke-width="0.61" stroke-miterlimit="10"/>
<path d="M106.9 99.64C104.71 98.72 102.47 98.89 100.43 100.1" stroke="white" stroke-width="0.61" stroke-miterlimit="10"/>
<path d="M113.08 154.25C113.08 154.25 112.98 153.51 114.44 163.09C115.9 172.66 110.22 176.95 110.22 176.95L109.76 183.1" stroke="#FFA733" stroke-width="0.63" stroke-miterlimit="10"/>
<path d="M143.908 192.777L138.726 185.467C138.429 185.048 137.849 184.949 137.43 185.246L112.457 202.947C112.038 203.244 111.939 203.825 112.236 204.244L117.418 211.553C117.715 211.973 118.295 212.071 118.714 211.774L143.687 194.073C144.106 193.776 144.205 193.196 143.908 192.777Z" fill="#CAEAFC"/>
<path d="M142.296 193.221L137.798 186.873L134.787 189.006L139.285 195.354L142.296 193.221Z" fill="#263447"/>
<path opacity="0.08" d="M122.022 207.641L117.523 201.294L114.513 203.428L119.012 209.775L122.022 207.641Z" fill="#263447"/>
<path opacity="0.25" d="M126.08 204.758L121.581 198.411L118.57 200.545L123.069 206.892L126.08 204.758Z" fill="#263447"/>
<path opacity="0.45" d="M130.147 201.875L125.648 195.528L122.638 197.661L127.137 204.009L130.147 201.875Z" fill="#263447"/>
<path opacity="0.65" d="M134.21 199L129.711 192.653L126.701 194.786L131.2 201.134L134.21 199Z" fill="#263447"/>
<path opacity="0.85" d="M138.239 196.103L133.741 189.755L130.73 191.889L135.228 198.237L138.239 196.103Z" fill="#263447"/>
<path d="M136.657 180.678L128.893 176.246C128.442 175.988 127.868 176.145 127.611 176.596L112.445 203.162C112.188 203.613 112.345 204.187 112.796 204.444L120.56 208.877C121.011 209.134 121.585 208.977 121.842 208.526L137.007 181.96C137.265 181.509 137.108 180.935 136.657 180.678Z" fill="#DEF4FC"/>
<path d="M135.443 181.764L128.686 177.907L126.857 181.112L133.613 184.969L135.443 181.764Z" fill="#355FFC"/>
<path opacity="0.08" d="M123.094 203.386L116.337 199.529L114.508 202.734L121.265 206.591L123.094 203.386Z" fill="#355FFC"/>
<path opacity="0.25" d="M125.561 199.069L118.804 195.212L116.975 198.417L123.731 202.274L125.561 199.069Z" fill="#355FFC"/>
<path opacity="0.45" d="M128.032 194.743L121.276 190.886L119.446 194.091L126.203 197.948L128.032 194.743Z" fill="#355FFC"/>
<path opacity="0.65" d="M130.499 190.416L123.743 186.559L121.913 189.763L128.67 193.621L130.499 190.416Z" fill="#355FFC"/>
<path opacity="0.85" d="M132.971 186.09L126.214 182.233L124.385 185.438L131.142 189.295L132.971 186.09Z" fill="#355FFC"/>
<path d="M122.15 172.21H113.19C112.676 172.21 112.26 172.626 112.26 173.14V203.75C112.26 204.264 112.676 204.68 113.19 204.68H122.15C122.664 204.68 123.08 204.264 123.08 203.75V173.14C123.08 172.626 122.664 172.21 122.15 172.21Z" fill="#F0FAFF"/>
<path d="M121.62 173.76H113.84V177.45H121.62V173.76Z" fill="#F53102"/>
<path opacity="0.08" d="M121.62 198.67H113.84V202.36H121.62V198.67Z" fill="#F53102"/>
<path opacity="0.25" d="M121.62 193.69H113.84V197.38H121.62V193.69Z" fill="#F53102"/>
<path opacity="0.45" d="M121.62 188.71H113.84V192.4H121.62V188.71Z" fill="#F53102"/>
<path opacity="0.65" d="M121.62 183.72H113.84V187.41H121.62V183.72Z" fill="#F53102"/>
<path opacity="0.85" d="M121.62 178.74H113.84V182.43H121.62V178.74Z" fill="#F53102"/>
<path d="M87.0699 191.04C90.6599 190.22 98.0299 189.01 104.15 187.56C104.73 190.84 105.45 193.23 107.17 199.94C95.8099 203.33 89.4899 203.71 89.4899 203.71C89.4899 203.71 88.1099 196.35 87.0699 191.04Z" fill="#E5A173"/>
<path d="M107.63 184.81C110.51 182.92 112.85 182.52 116.25 182.2C116.75 182.15 117.94 182.69 118.36 182.97C118.36 183.42 118.25 185.35 117.91 185.65C117.18 186.3 115.56 184.8 114.82 185.45C111.55 188.34 109.24 191.38 104.95 192.01C104.39 192.09 103.01 188.81 103.66 188.23C104.96 187.07 106.16 185.77 107.62 184.81H107.63Z" fill="#D3835B"/>
<path d="M102.71 188.16C102.85 192.14 103.79 196.87 104.09 200.84C106.01 201.73 107.41 202.55 110.86 202.43C113.41 202.34 120.92 200.6 122.03 199.74L119.09 182.01C117.2 182.35 111.98 182.64 110.21 183.41C108.85 184 109.3 184.07 108.06 184.89C106.21 186.11 104.55 186.95 102.7 188.17L102.71 188.16Z" fill="#E5A173"/>
<path d="M121.79 182.24C122.96 182.52 124.07 183.35 124.32 184.53C124.57 185.71 123.64 187.12 122.43 187.05C123.48 186.86 124.57 187.69 124.74 188.74C124.91 189.79 124.21 190.91 123.21 191.29C124.19 191.48 124.94 192.46 124.88 193.46C124.82 194.46 123.95 195.36 122.96 195.46C123.8 195.49 124.59 196.08 124.85 196.89C125.11 197.69 124.83 198.65 124.17 199.19C123.71 199.57 123.13 199.73 122.56 199.89C121.97 200.06 115.34 201.05 114.54 200.9C113.75 200.74 112.99 200.07 113.03 199.26C113.08 198.21 114.94 197.7 117.42 196.76C116.14 197 114.82 197.06 113.52 196.92C113.01 196.87 112.47 196.77 112.08 196.44C111.37 195.84 111.43 194.65 111.97 193.86C112.5 193.08 114.61 192.23 115.44 191.79C113.94 192.47 110.72 191.72 110.54 190.09C110.35 188.46 112.23 186.99 114.82 186.9C113.39 186.85 111.83 186.81 111.13 186.24C110.57 185.78 110.57 184.86 110.96 184.24C111.36 183.62 112.05 183.25 112.74 182.99C114.76 182.24 119.69 181.73 121.78 182.24H121.79Z" fill="#E5A173"/>
<path d="M122.95 195.47C122.95 195.47 121.58 195.89 117.42 196.77C117.42 196.77 120.47 196.98 122.95 195.47Z" fill="#D3835B"/>
<path d="M123.21 191.3C123.21 191.3 119.1 191.07 115.45 191.8C115.45 191.8 121.81 191.76 123.21 191.3Z" fill="#D3835B"/>
<path d="M122.89 187.04C122.89 187.04 116.65 186.35 114.51 186.9C114.51 186.9 121.43 187.58 122.89 187.04Z" fill="#D3835B"/>
<path d="M62.85 162.09C62.85 162.09 73.54 144.41 70.58 129.26C70.58 129.26 48.21 128.06 42.29 161.62C40.25 173.16 35.11 197.31 39.79 205.04C45.59 214.62 90.63 205.18 103.36 202.55C103.36 202.55 103.79 191.28 101.39 187.74C100.56 186.51 58.32 190.67 58.32 190.67L62.86 162.1L62.85 162.09Z" fill="#FFCC31"/>
<path d="M67.39 152.66C65.85 156.69 62.85 162.09 62.85 162.09L58.46 190.58C58.46 190.58 79.82 188.79 86.17 188.26" stroke="#FFA733" stroke-width="0.63" stroke-miterlimit="10"/>
</g>
<defs>
<clipPath id="clip0_136_22">
<rect width="698.88" height="425.74" fill="white"/>
</clipPath>
</defs>
</svg>
