<?xml version="1.0" encoding="UTF-8"?>
<svg id="Layer_1" data-name="Layer 1" xmlns="http://www.w3.org/2000/svg" xmlns:xlink="http://www.w3.org/1999/xlink" viewBox="0 0 150 150">
  <defs>
    <style>
      .cls-1 {
        fill: #d06146;
      }

      .cls-1, .cls-2, .cls-3, .cls-4 {
        stroke-width: 0px;
      }

      .cls-5 {
        clip-path: url(#clippath);
      }

      .cls-2 {
        fill: none;
      }

      .cls-3 {
        fill: #edc85e;
      }

      .cls-6 {
        filter: url(#drop-shadow-1);
      }

      .cls-4 {
        fill: #fff;
      }
    </style>
    <filter id="drop-shadow-1" filterUnits="userSpaceOnUse">
      <feOffset dx="5" dy="5"/>
      <feGaussianBlur result="blur" stdDeviation="5"/>
      <feFlood flood-color="#000" flood-opacity=".4"/>
      <feComposite in2="blur" operator="in"/>
      <feComposite in="SourceGraphic"/>
    </filter>
    <clipPath id="clippath">
      <rect class="cls-2" x="39.58" y="35.85" width="66.62" height="81.72" transform="translate(-24.11 119.01) rotate(-70.02)"/>
    </clipPath>
  </defs>
  <g class="cls-6">
    <polygon class="cls-1" points="70.16 19.6 122 39.05 133.79 63.91 116.89 102.17 64.72 125.27 27.37 113.36 15.08 97.51 17.79 78.11 31.79 36.3 41.97 20.42 70.16 19.6"/>
    <g class="cls-5">
      <g>
        <path class="cls-3" d="M65.24,95.33c4.8,1.73,8.87,2.49,13.09,2.25,4.43-.25,8.53-1.48,12.02-4.36,1.82-1.51,3.24-3.35,4.36-5.45.77-1.43,1.25-2.97,1.83-4.47.43-1.11,1.31-1.58,2.39-1.15,4.19,1.66,7.79.47,10.91-2.44,5.03-4.68,5.84-12.94,1.23-18.34-3.6-4.22-10.44-5.26-15.12-1.54-.44.35-.86.73-1.39.97-.76.34-1.56.13-2.05-.53-.47-.65-.46-1.52.05-2.14,1-1.21,2.24-2.13,3.65-2.82,3.72-1.82,7.51-1.94,11.39-.54,5.16,1.86,8.27,5.57,9.66,10.79.63,2.36.65,4.77.23,7.21-.62,3.62-2.17,6.71-4.76,9.27-3.54,3.49-7.78,4.99-12.72,4.33-.59-.08-.75.15-.93.62-1.7,4.32-4.32,7.91-8.24,10.46-2.81,1.83-5.87,2.96-9.18,3.44-1.03.15-1.07.13-.86,1.15.59,2.95.76,5.92.54,8.93-.06.79-.12,1.6-.33,2.36-.15.54-.6.94-1.22,1.06-.62.13-1.15-.02-1.6-.48-.6-.62-.68-1.39-.61-2.22.24-2.98.09-5.94-.56-8.85,0-.02,0-.04-.01-.06-.19-.96-.77-1.46-1.73-1.52-4.26-.26-8.36-1.19-12.27-2.87-2.89-1.23-5.65-2.74-8.08-4.76-.47-.38-.83-.37-1.32-.01-2.55,1.84-4.7,4.07-6.55,6.61-.48.66-.93,1.35-1.82,1.53-.72.15-1.31.02-1.79-.57-.47-.58-.41-1.2-.11-1.82.68-1.41,1.63-2.63,2.63-3.8,1.53-1.79,3.19-3.43,5.06-4.86.48-.37.1-.58-.08-.79-1.08-1.21-2.06-2.5-2.9-3.91-1.8-2.99-2.85-6.21-3.04-9.7-.16-2.96.29-5.83,1.26-8.64.15-.41.13-.65-.3-.92-2.31-1.47-4.16-3.37-5.39-5.86-1.48-3.01-2.06-6.17-1.57-9.5.57-3.89,2.25-7.25,5.04-10.01,3.7-3.65,8.16-5.42,13.26-4.56,5.9.99,10.19,4.22,12.02,10.2.28.9.42,1.83.42,2.78,0,.86-.67,1.62-1.5,1.74-.94.12-1.69-.35-1.91-1.28-.34-1.4-.6-2.82-1.31-4.1-1.26-2.26-3.05-3.93-5.46-4.91-4.76-1.94-8.95-.78-12.68,2.5-1.98,1.75-3.23,4.01-3.91,6.59-.86,3.25-.63,6.35,1,9.28,1.18,2.12,2.83,3.73,5.21,4.48,1.44.45,1.79,1.29,1.24,2.72-.85,2.17-1.54,4.38-1.73,6.72-.35,4.21.7,8.03,3.05,11.51,1.95,2.89,4.42,5.24,7.35,7.12,2.19,1.41,4.49,2.63,6.11,3.17h.01Z"/>
        <path class="cls-3" d="M78.07,79.03c-.54,1.49-.97,2.72-1.81,3.74-1.1,1.35-2.53,2-4.27,1.97-.31,0-.72-.16-.87.28-.14.42-.03.84.26,1.17.58.67,1.62.73,2.3.16.13-.11.25-.23.38-.32.56-.41,1.02-.39,1.39.04.4.47.38,1.07-.06,1.51-1.59,1.58-4.51,1.82-5.83-.66-.18-.33-.34-.38-.69-.24-2.55,1.05-4.75-1.1-4.82-3.36-.02-.6.31-.94.85-1.07.58-.14.91.2,1.08.7.12.33.16.69.29,1.02.42,1.04,1.84,1.34,2.52.54.27-.32.32-.57-.08-.88-2.07-1.58-2.67-3.65-2-6.15.63-2.37,1.61-4.58,2.89-6.65.84-1.37,1.79-2.68,3.23-3.51,2.33-1.35,5.46-.1,6.24,2.47.39,1.28.37,2.57.23,3.85-.21,1.94-.58,3.85-1.24,5.39h0Z"/>
        <path class="cls-3" d="M108.93,74.87c-1.2,3.35-4.78,5.19-8.24,4.18-1.33-.39-1.83-.99-1.84-2.38,0-2.8-.35-5.54-1.09-8.24-.37-1.36-.02-2.12,1.25-2.71,2.02-.93,4.07-.88,6.1.04,2.07.94,3.43,2.5,4.05,4.71.42,1.47.25,2.9-.22,4.4h0Z"/>
        <path class="cls-3" d="M50.17,60.69c-2.94-1.12-4.64-4.45-3.92-7.68.8-3.57,3.8-5.85,7.43-5.64,2.86.17,4.92,1.61,6.22,4.12.62,1.2.41,2.04-.69,2.84-1.88,1.37-3.7,2.79-5.21,4.58-.3.35-.59.71-.89,1.05-.94,1.07-1.62,1.23-2.93.74h0Z"/>
        <path class="cls-3" d="M55.95,69.17c.84-2.38,3.22-3.99,6.09-2.96,2.84,1.01,3.66,3.82,2.85,6.13-.82,2.32-3.48,3.79-6.14,2.87-2.37-.82-3.73-3.87-2.79-6.03h0ZM59.62,67.46c-.72-.26-1.31-.02-1.58.66-.25.65.07,1.31.75,1.56.6.22,1.36-.1,1.57-.66.24-.65-.07-1.3-.74-1.55h0Z"/>
        <path class="cls-3" d="M84.7,84.62c-2.36-.86-3.69-3.63-2.81-5.99.93-2.46,3.32-4.07,6.15-2.98,2.73,1.05,3.65,3.62,2.81,6.15-.81,2.44-3.69,3.71-6.16,2.82h0ZM85.67,76.93c-.75-.29-1.4,0-1.66.73-.22.62.13,1.22.86,1.49.61.22,1.23-.07,1.46-.68.29-.75.06-1.26-.67-1.54Z"/>
        <path class="cls-3" d="M105.96,60.34c1.86.63,3.29,1.63,4.4,3.07.33.43.59.91.57,1.49-.03.73-.41,1.27-1.04,1.5-.63.22-1.28.05-1.73-.52-.78-1.01-1.78-1.69-2.95-2.12-2.08-.77-4.12-.64-6.13.31-.81.38-1.48.29-1.95-.22-.65-.69-.61-1.69.19-2.31,1.61-1.25,3.46-1.83,5.48-1.77,1.13.03,2.25.14,3.16.58h0Z"/>
        <path class="cls-3" d="M57.92,42.85c2.98,1.17,5.06,3.2,5.94,6.35.27.97-.06,1.64-.86,1.96-.81.32-1.57.03-2.03-.84-.55-1.06-1.1-2.1-2.06-2.87-1.72-1.38-3.63-2.08-5.85-1.7-1.04.18-1.81-.21-2.06-1.04-.25-.82.17-1.62,1.11-2.06.46-.21.93-.35,1.45-.38,1.49-.09,2.95.02,4.36.58h0Z"/>
        <path class="cls-3" d="M85.56,56.6c-1.22-.75-2.53-1.74-3.43-3.16-.56-.88-.34-1.78.49-2.43,1.28-1.02,2.82-1.4,4.36-1.76.65-.15,1.3-.29,1.98-.2.88.12,1.42.65,1.52,1.47.09.81-.34,1.54-1.16,1.79-.84.25-1.7.43-2.54.65-.14.03-.32.03-.36.2-.04.18.13.23.24.32.22.19.44.39.65.58.67.58.89,1.37.53,1.99-.41.71-1.2.95-2.28.55Z"/>
        <path class="cls-3" d="M77.79,52.84c-1.39-.5-1.76-1.93-.85-2.84,1.75-1.75,3.75-3.18,5.93-4.34,1.39-.74,2.77.1,2.73,1.56,0,.43-.21.77-.48,1.06-.24.26-.52.48-.81.69-1.66,1.19-3.32,2.38-4.98,3.57-.53.38-1.11.45-1.54.31h0Z"/>
        <path class="cls-3" d="M53.82,72.01c.35.09.64.35.77.72.35.99.9,1.88,1.4,2.79.3.55.33,1.11-.05,1.66-.48.67-1.44.86-2.04.3-1.15-1.08-1.8-2.47-1.95-4.02-.11-1.11.87-1.81,1.87-1.44h0Z"/>
        <path class="cls-3" d="M86.57,89.43c-1.02-.37-1.27-1.62-.51-2.37.27-.27.61-.43.98-.54.8-.25,1.54-.61,2.27-1.04.64-.38,1.33-.29,1.77.19.48.53.53,1.2.12,1.85-.62.96-3.33,2.17-4.43,1.97-.08-.01-.16-.04-.19-.05h0Z"/>
      </g>
    </g>
    <g id="DoI4l7">
      <path class="cls-4" d="M20.43,55.37c2.88-7.68,5.7-15.38,8.66-23.03,6.4-16.55,25.28-25.17,41.93-19.05,15.4,5.66,30.76,11.42,46.08,17.29,16.56,6.35,25.1,25.25,19.02,41.94-3.18,8.73-6.56,17.38-9.74,26.11-1.03,2.83-2.91,4.89-5.12,6.74-10.66,8.97-23.09,14.77-35.9,19.85-6.16,2.44-12.5,4.35-19.06,5.44-3.68.61-7.17.44-10.73-.99-8.07-3.23-16.28-6.12-24.4-9.24-16.92-6.5-25.49-25.31-19.27-42.3,2.78-7.61,5.68-15.18,8.53-22.77ZM30.4,57.08c-3.29,8.75-6.04,15.85-8.62,23.02-4.49,12.5-.18,24.04,11.48,30.15,6.93,3.63,14.54,5.66,21.79,8.56,1.8.72,2.5-.22,3.05-1.72,1.39-3.81,2.81-7.6,4.28-11.38,5.6-14.42,20.96-23.15,36.24-20.6,5.91.99,11.23,3.74,16.82,5.71,1.95.69,3.08.57,3.85-1.59,2.27-6.33,4.83-12.55,7.02-18.91,4.54-13.22-.94-25.66-13.93-30.82-14.43-5.73-28.98-11.15-43.6-16.37-12.25-4.38-23.63.12-29.59,11.59-3.98,7.64-6.13,16.06-8.79,22.38Z"/>
    </g>
  </g>
</svg>