<?xml version="1.0" encoding="UTF-8"?>
<svg id="Layer_1" data-name="Layer 1" xmlns="http://www.w3.org/2000/svg" xmlns:xlink="http://www.w3.org/1999/xlink" viewBox="0 0 1080 1080">
  <defs>
    <style>
      .cls-1 {
        fill: #fffef9;
      }

      .cls-1, .cls-2, .cls-3, .cls-4, .cls-5 {
        stroke-width: 0px;
      }

      .cls-2 {
        fill: #2a6239;
      }

      .cls-6 {
        clip-path: url(#clippath);
      }

      .cls-3 {
        fill: none;
      }

      .cls-4 {
        fill: #d06247;
      }

      .cls-5 {
        fill: #f5c645;
      }
    </style>
    <clipPath id="clippath">
      <rect class="cls-3" x="107.06" y="163.62" width="866.83" height="706.66"/>
    </clipPath>
  </defs>
  <path class="cls-5" d="M74.1,72.86h930.92c.67,8.87,1.85,17.24,1.84,25.61-.13,99.73-.07,199.46-.79,299.18-.73,100.89-59.17,163.3-160.84,167.49-77.12,3.18-154.44,1.24-231.67,1.76-38.79.26-45.97,7.57-46.21,46.5-.47,76.25,1.26,152.59-1.72,228.75-4.11,105.1-65.2,162.37-170.77,163.43-97.76.99-195.54.97-293.31,1.28-8.61.03-17.22-.74-27.46-1.22V72.86Z"/>
  <g class="cls-6">
    <g>
      <path class="cls-2" d="M531.64,730.26c54.17-.14,97.47-7.33,138.61-24.96,43.24-18.54,79.68-45.62,104.06-87.07,12.68-21.64,20.11-45.12,23.69-70.08,2.45-17.06,1.68-34.12,2.03-51.19.21-12.62,7.29-20.52,19.69-20.16,47.72,1.34,79.33-23.55,99.93-63.88,33.22-64.86,11.35-150.17-54.17-187.33-51.15-28.98-123.12-14.59-156.34,39.41-3.15,5.08-5.96,10.43-10.3,14.66-6.38,6.2-15.07,6.98-22.35,2.12-7.08-4.72-10.09-13.54-7.22-21.5,5.61-15.72,14.65-29.4,26.14-41.31,30.48-31.59,67.83-46.6,111.56-46.67,58.16-.14,102.66,25.52,135.39,72.55,14.79,21.22,23.76,45.19,28.38,71.07,6.94,38.28,2.66,74.8-13.87,109.63-22.63,47.59-59.49,77.98-111.07,89.26-6.17,1.34-6.94,4.23-7.08,9.52-1.33,49.21-14.44,94.47-44.22,134.17-21.37,28.41-47.79,50.83-79.04,67.54-9.74,5.22-10.16,5.15-4.42,14.59,16.61,27.28,29.08,56.26,37.77,87,2.31,8.11,4.63,16.36,5.26,24.68.49,5.92-2.52,11.56-8.27,15.02-5.75,3.53-11.56,4.02-17.66,1.06-8.27-4.02-11.84-11.42-14.15-19.88-8.41-30.6-20.67-59.5-37.7-86.23-.14-.21-.21-.35-.35-.56-5.37-8.84-12.94-11.8-22.7-8.88-43.38,12.83-87.66,18.4-132.72,15.86-33.29-1.83-66.22-6.84-97.83-18.12-6.03-2.12-9.6-.63-13.17,4.65-18.78,27.57-32.09,57.6-41.34,89.61-2.38,8.32-4.35,16.78-12.54,21.86-6.66,4.09-13.03,4.94-19.9.78-6.8-4.09-8.41-10.5-7.71-17.77,1.68-16.5,6.73-32.15,12.47-47.45,8.76-23.34,19.41-45.76,32.87-66.77,3.43-5.43-1.05-6.13-3.64-7.61-15.21-8.18-29.64-17.49-43.1-28.41-28.73-23.27-50.87-51.61-65.45-85.73-12.33-28.91-18.22-59.22-18.71-90.67,0-4.58-1.12-6.98-6.31-8.11-28.31-6.28-53.68-18.47-74.91-38.85-25.65-24.61-42.89-54.01-50.03-88.97-8.41-40.82-3.85-80.44,13.94-118.09,23.62-49.78,61.74-83.62,115.69-93.56,62.37-11.49,116.89,5.15,156.76,58.09,6.03,7.97,10.86,16.71,14.23,26.23,3.08,8.6-.84,18.61-8.69,22.77-8.97,4.65-18.08,2.61-23.69-5.85-8.48-12.76-16.19-25.95-27.96-36.1-20.81-17.98-44.64-28.13-72.25-29.12-54.45-2.04-92.08,24.68-117.31,70.86-13.38,24.61-17.66,51.68-15.14,79.88,3.22,35.46,16.68,65.57,43.66,88.9,19.48,16.85,41.7,26.93,68.18,25.8,16.05-.7,22.56,6.35,22.21,22.63-.56,24.75.56,49.21,7.08,73.32,11.77,43.29,36.09,77.55,72.11,103.64,29.92,21.72,63.07,36.17,99.09,44.35,26.98,6.13,54.24,9.94,72.39,9.45l.14-.07Z"/>
      <path class="cls-2" d="M600.53,521.29c0,16.78.14,30.6-4.48,43.85-6.1,17.48-17.94,29.12-35.46,35.11-3.15,1.06-7.78,1.06-7.64,5.92.14,4.72,2.73,8.46,6.87,10.72,8.2,4.58,18.78,1.41,23.55-6.77.91-1.55,1.68-3.17,2.66-4.58,4.06-6.06,8.76-7.61,13.94-4.65,5.68,3.24,7.71,9.31,4.84,15.3-10.16,21.5-38.4,34.48-60.47,14.52-3.01-2.68-4.77-2.54-7.71.14-21.65,19.74-51.36,6.2-60.26-16-2.38-5.85-.28-10.5,4.63-13.75,5.26-3.52,9.74-1.34,13.31,3.03,2.38,2.89,4.06,6.34,6.59,9.16,7.99,8.88,23.2,6.7,27.05-3.74,1.54-4.16,1.12-6.84-3.92-8.46-26.35-8.25-39.8-26.72-42.26-54.08-2.31-25.95-.56-51.47,4.7-76.71,3.43-16.71,8.13-33.21,19.48-46.74,18.36-21.93,54.1-20.8,71.13,2.04,8.48,11.35,12.96,24.25,16.26,37.58,4.91,20.09,8.13,40.47,7.22,58.24v-.14Z"/>
      <path class="cls-2" d="M893.02,368.01c.21,37.72-28.8,69.09-66.99,71.49-14.72.92-21.86-3.17-26.98-17.06-10.16-27.92-23.54-53.94-40.71-78.19-8.62-12.2-7.92-21.08,2.66-31.52,16.82-16.57,37.42-23.55,60.9-21.72,24.04,1.9,43.24,12.48,57.46,32.29,9.46,13.11,12.96,27.99,13.73,44.7h-.07Z"/>
      <path class="cls-2" d="M255.9,439.57c-33.36-.49-62.44-27.57-66.92-62.32-4.98-38.49,16.68-72.13,53.68-83.12,29.15-8.67,54.87-1.83,76.94,18.47,10.58,9.73,11.42,18.82,3.36,30.81-13.81,20.45-26.77,41.25-35.32,64.51-1.68,4.58-3.29,9.16-5.12,13.68-5.47,14.03-11.7,18.19-26.56,17.98h-.07Z"/>
      <path class="cls-2" d="M344.19,503.17c-.28-26.79,17.66-51.4,49.96-51.61,31.96-.21,50.31,24.82,50.59,50.76.21,26.09-20.95,50.34-50.8,50.83-26.63.42-51.23-25.03-49.68-49.99h-.07ZM374.6,472.78c-8.13,0-13.17,4.58-13.31,12.34-.14,7.33,5.47,12.83,13.1,12.83,6.8,0,13.17-5.92,13.24-12.27.07-7.33-5.4-12.76-12.96-12.83l-.07-.07Z"/>
      <path class="cls-2" d="M686.79,553.01c-26.63,0-49.96-22.77-49.68-49.49.35-27.85,18.36-52.6,50.45-52.03,31.04.56,49.54,22.84,50.31,51.11.77,27.21-23.33,50.34-51.16,50.41h.07ZM668.64,472.78c-8.55-.14-13.94,5.01-13.88,13.25,0,6.98,5.75,11.7,14.02,11.7,6.87,0,11.98-5.15,12.12-12.06.14-8.53-3.92-12.76-12.26-12.9Z"/>
      <path class="cls-2" d="M810.75,233.84c20.81-.49,38.68,4.3,55.01,14.59,4.91,3.1,9.18,6.98,11.07,12.76,2.38,7.33.56,14.17-4.91,18.75-5.47,4.51-12.61,5.15-19.13,1.06-11.42-7.19-23.9-10.36-37.14-10.43-23.48-.14-43.38,8.6-59.98,25.31-6.73,6.77-13.73,8.25-20.25,4.94-8.97-4.58-12.19-14.67-6.45-23.76,11.49-18.26,27.82-30.74,48.21-37.51,11.35-3.74,22.91-6.7,33.57-5.64v-.07Z"/>
      <path class="cls-2" d="M268.51,233.63c33.92.92,62.02,13.54,82.27,41.74,6.24,8.67,5.4,16.57-1.47,22.63-6.87,6.13-15.56,5.99-23.27-1.06-9.32-8.53-18.57-16.99-30.9-21.15-22.14-7.47-43.73-7.61-64.54,4.23-9.74,5.57-18.78,4.51-24.32-2.89-5.47-7.26-4.13-16.78,3.64-24.53,3.78-3.74,8.06-6.84,13.03-9.02,14.51-6.27,29.5-10.51,45.62-10.01l-.07.07Z"/>
      <path class="cls-2" d="M593.8,270.5c-14.93-3.03-31.53-8.18-45.69-19.04-8.83-6.77-9.81-16.5-3.92-26.02,9.11-14.81,23.05-24.18,37.14-33.35,5.89-3.88,11.91-7.61,18.99-9.17,9.18-1.97,16.54,1.27,20.46,9.17,3.85,7.76,2.17,16.57-5.05,22-7.43,5.57-15.35,10.43-22.98,15.65-1.26.85-3.08,1.48-2.87,3.31.21,1.9,2.17,1.83,3.57,2.33,2.87,1.13,5.75,2.26,8.62,3.38,8.76,3.31,13.81,10.43,12.47,17.98-1.47,8.6-8.48,13.82-20.74,13.75Z"/>
      <path class="cls-2" d="M502.7,261.2c-15.63.07-24.53-12.9-18.78-25.24,11.07-23.83,25.86-45.33,43.45-64.72,11.21-12.41,27.96-9.02,32.87,5.64,1.47,4.3.7,8.39-.98,12.27-1.47,3.45-3.43,6.7-5.54,9.8-12.19,17.91-24.46,35.75-36.72,53.65-3.92,5.71-9.39,8.53-14.23,8.67l-.07-.07Z"/>
      <path class="cls-2" d="M333.33,539.19c3.85-.35,7.64,1.2,10.23,4.37,7.08,8.6,15.77,15.44,24.11,22.77,4.97,4.37,7.36,9.87,5.47,16.71-2.31,8.39-11.21,13.75-19.2,10.36-15.35-6.63-26.91-18.05-34.06-33-5.12-10.65,2.1-21.22,13.45-21.15v-.07Z"/>
      <path class="cls-2" d="M722.88,594.19c-11.56,0-18.57-11.56-13.66-21.79,1.75-3.67,4.56-6.49,7.78-8.95,7.08-5.36,13.17-11.7,18.85-18.54,4.98-6.06,12.26-7.68,18.36-4.51,6.73,3.52,9.6,10.08,7.85,17.98-2.66,11.84-25.3,33.7-37,35.67-.84.14-1.75.14-2.1.21l-.07-.07Z"/>
    </g>
  </g>
  <path class="cls-1" d="M999.72,559.85c-21.07,214.81-216.01,416.1-440.76,439.88,64.57-70.35,63.46-154.52,62.67-238.72-.42-44.85-.07-89.71-.07-137.47,12.82-.58,23.16-1.32,33.52-1.48,66.48-1.05,133-.85,199.43-3.3,54.02-1.99,102.16-22.14,145.23-58.91Z"/>
  <path class="cls-4" d="M540.26,17.36c158.47,0,316.94-.05,475.42.03,40.77.02,46.5,5.41,46.35,45.27-.57,154.53,3.43,309.28-3.27,463.55-10.78,248.48-198.29,468.17-442.9,518.81-75.65,15.66-155.26,14.64-233.17,16.44-106.56,2.47-213.23.38-319.86.15-38.97-.08-45.44-5.93-45.46-43.34-.13-318.9-.12-637.8-.01-956.7.01-38.6,5.7-44.13,44.53-44.16,159.45-.12,318.9-.05,478.35-.05ZM74.1,72.86v932.79c10.24.48,18.85,1.25,27.46,1.22,97.77-.32,195.54-.3,293.31-1.28,105.57-1.07,166.66-58.34,170.77-163.43,2.97-76.15,1.25-152.49,1.72-228.75.24-38.93,7.42-46.24,46.21-46.5,77.23-.52,154.55,1.42,231.67-1.76,101.67-4.19,160.1-66.6,160.84-167.49.72-99.72.67-199.46.79-299.18.01-8.37-1.17-16.74-1.84-25.61H74.1ZM999.72,559.85c-43.06,36.77-91.21,56.92-145.23,58.91-66.43,2.45-132.95,2.25-199.43,3.3-10.36.16-20.7.9-33.52,1.48,0,47.76-.35,92.62.07,137.47.79,84.2,1.9,168.36-62.67,238.72,224.75-23.78,419.69-225.07,440.76-439.88Z"/>
</svg>