<?xml version="1.0" encoding="UTF-8"?>
<svg id="Layer_1" data-name="Layer 1" xmlns="http://www.w3.org/2000/svg" xmlns:xlink="http://www.w3.org/1999/xlink" viewBox="0 0 1080 1080">
  <defs>
    <style>
      .cls-1 {
        fill: #2a6239;
      }

      .cls-1, .cls-2, .cls-3, .cls-4 {
        stroke-width: 0px;
      }

      .cls-5 {
        clip-path: url(#clippath);
      }

      .cls-2 {
        fill: none;
      }

      .cls-3 {
        fill: #d06247;
      }

      .cls-4 {
        fill: #f5c745;
      }
    </style>
    <clipPath id="clippath">
      <rect class="cls-2" x="240.67" y="195.57" width="588.31" height="716.92" transform="translate(-110.77 973.79) rotate(-79.04)"/>
    </clipPath>
  </defs>
  <path class="cls-4" d="M912.63,688.99c-5.33-1.03-9.3-1.8-13.27-2.57-60.83-11.78-121.65-23.62-182.5-35.32-78.78-15.14-145.02,29.89-160.54,109.19-11.98,61.21-23.74,122.46-35.6,183.7-.78,4-1.55,8.01-2.6,13.42-4.92-.95-8.83-1.71-12.75-2.47-92.54-17.92-185.09-35.8-277.62-53.76-91.63-17.79-145.12-97.75-127.24-190.19,30.01-155.13,60.03-310.27,90.11-465.38,17.77-91.62,97.49-145.88,188.51-128.29,154.49,29.85,308.97,59.76,463.44,89.73,90.42,17.55,144.35,97.67,126.86,188.49-18.01,93.54-36.19,187.05-54.3,280.57-.71,3.69-1.43,7.38-2.5,12.89Z"/>
  <g class="cls-5">
    <g>
      <path class="cls-1" d="M493.9,726.99c44.01,8.4,80.31,9.33,116.5,1.39,38.04-8.36,71.91-24.76,98.27-54.81,13.72-15.7,23.47-33.72,30.32-53.56,4.69-13.56,6.77-27.63,9.75-41.52,2.17-10.28,9.16-15.62,19.18-13.38,38.54,8.6,68.14-6.78,91.25-36.5,37.24-47.79,32.98-120.96-14.34-161.63-36.95-31.73-97.66-31.29-133.18,7.63-3.36,3.65-6.49,7.59-10.69,10.37-6.16,4.07-13.34,3.34-18.49-1.79-5-4.97-6.05-12.65-2.46-18.71,7.04-11.97,16.55-21.73,27.76-29.66,29.75-21.02,62.45-27.43,97.97-20.61,47.25,9.03,79.32,37,98.45,80.58,8.65,19.67,12.14,40.67,11.8,62.55-.43,32.38-9.68,61.56-28.62,87.43-25.91,35.34-60.65,54.38-104.31,55.49-5.22.13-6.3,2.37-7.25,6.67-8.87,40.01-26.67,74.95-57.14,102.71-21.85,19.86-46.85,34.03-74.87,42.78-8.73,2.73-9.07,2.61-5.89,11.23,9.17,24.91,14.71,50.56,16.9,77.05.6,6.99,1.17,14.1.36,21-.54,4.92-3.88,9.05-9.09,10.97-5.22,1.98-10.02,1.47-14.51-1.91-6.08-4.58-7.81-11.2-8.35-18.48-1.99-26.33-7.37-51.89-16.97-76.4-.08-.2-.11-.32-.2-.52-2.96-8.07-8.64-11.68-17.03-10.83-37.25,3.67-74.09,1.26-110.28-7.9-26.74-6.73-52.69-16-76.56-30.19-4.56-2.68-7.69-2.03-11.43,1.73-19.61,19.58-35.18,42.03-47.75,66.74-3.25,6.43-6.18,13.03-13.64,15.89-6.05,2.3-11.36,1.98-16.28-2.5-4.87-4.41-5.17-9.91-3.45-15.73,3.98-13.22,10.55-25.22,17.64-36.82,10.81-17.7,23-34.35,37.25-49.4,3.65-3.9.12-5.18-1.75-6.8-11.05-9.08-21.3-18.95-30.5-30-19.65-23.53-33.14-50.18-39.58-80.36-5.44-25.56-5.42-51.27-.84-77.05.73-3.75.19-5.88-3.84-7.62-21.99-9.58-40.66-23.54-54.68-43.53-16.93-24.14-26.28-50.88-26.55-80.59-.37-34.69,9.6-66.36,30.01-94.33,27.05-36.97,63.36-58.64,108.75-58.28,52.46.41,94.09,22.58,118.09,72.13,3.63,7.46,6.18,15.36,7.4,23.67,1.14,7.52-3.63,15.08-10.66,17.25-8.02,2.39-15.09-.71-18.31-8.51-4.87-11.76-9.04-23.75-16.99-33.9-14.05-17.97-31.79-30.01-54.05-35.16-43.89-10.23-78.67,5.69-106.46,39.47-14.76,18.01-22.52,39.46-24.93,62.91-3,29.49,3.17,56.21,21.38,79.53,13.15,16.84,29.59,28.57,51.28,31.81,13.14,1.95,17.32,8.73,14.46,21.99-4.37,20.14-7.33,40.31-5.86,61.04,2.71,37.23,17.03,69.06,42.15,96.05,20.86,22.45,45.49,39.48,73.44,51.82,20.94,9.25,42.47,16.65,57.28,19.1l.13-.04Z"/>
      <path class="cls-1" d="M582.9,567.02c-2.66,13.71-4.73,25.03-10.58,35.14-7.72,13.33-19.17,20.98-34.35,23.12-2.73.37-6.48-.36-7.14,3.64-.63,3.88.88,7.34,3.88,9.84,5.93,5.03,15.03,4.11,20.19-1.83.98-1.12,1.87-2.33,2.89-3.33,4.26-4.32,8.32-4.85,12.06-1.61,4.1,3.54,4.79,8.82,1.5,13.27-11.65,15.98-36.64,22.14-51.4,2.36-2.02-2.66-3.47-2.82-6.28-1.1-20.71,12.73-42.69-3-46.4-22.56-1.01-5.16,1.44-8.63,5.93-10.51,4.83-2.05,8.12.44,10.33,4.57,1.48,2.74,2.3,5.82,3.9,8.53,5.08,8.52,17.77,9.12,22.55,1.2,1.91-3.16,1.99-5.41-1.85-7.53-20.09-10.88-28.09-28.1-25.75-50.84,2.23-21.57,7.69-42.15,15.95-61.96,5.43-13.12,11.86-25.86,23.22-35.14,18.38-15.03,47.22-8.49,57.43,12.85,5.09,10.61,6.69,21.86,7.25,33.27.8,17.19.2,34.35-3.36,48.73l.02-.11Z"/>
      <path class="cls-1" d="M844.66,487.72c-5.8,30.86-34.32,51.94-65.71,47.9-12.09-1.56-17.25-6.03-19.21-18.19-3.83-24.42-10.58-47.79-20.68-70.31-5.07-11.32-3.09-18.48,7.15-25.34,16.28-10.9,34.11-13.36,52.88-8.17,19.22,5.34,33.13,17,41.55,35.43,5.61,12.21,6.1,24.91,4.08,38.69h-.06Z"/>
      <path class="cls-1" d="M316,446.05c-27.01-5.65-46.33-32.35-44.48-61.46,2.05-32.25,24.96-56.33,56.74-59.5,25.04-2.5,44.84,7.13,59.55,27.19,7.05,9.62,6.3,17.18-2.14,25.71-14.45,14.54-28.26,29.5-38.89,47.17-2.09,3.48-4.12,6.97-6.32,10.37-6.66,10.61-12.38,13.03-24.41,10.52h-.06Z"/>
      <path class="cls-1" d="M377.63,511.91c4.01-21.94,22.47-39.23,48.74-34.33,25.98,4.85,36.93,28.19,33.05,49.44-3.96,21.35-24.98,37.85-49.3,33.56-21.69-3.84-37.63-28.51-32.43-48.67h-.06ZM407.13,491.85c-6.6-1.28-11.42,1.67-12.76,7.99-1.27,5.97,2.41,11.35,8.61,12.55,5.52,1.07,11.63-2.77,12.69-7.94,1.22-5.98-2.36-11.28-8.5-12.53l-.05-.07Z"/>
      <path class="cls-1" d="M647.92,606.51c-21.62-4.19-36.96-26.47-32.51-48.26,4.69-22.71,23.23-40.1,49.2-34.6,25.12,5.34,36.61,26.46,32.76,49.69-3.68,22.36-26.91,37.48-49.51,33.16h.06ZM645.88,538.08c-6.92-1.46-12.11,1.9-13.36,8.65-1.1,5.7,2.81,10.47,9.53,11.77,5.58,1.08,10.54-2.32,11.75-7.95,1.46-6.95-1.17-11.05-7.92-12.47Z"/>
      <path class="cls-1" d="M799.09,365.13c16.98,2.87,30.73,9.6,42.36,20.58,3.49,3.31,6.35,7.15,6.97,12.17.77,6.37-1.79,11.67-6.95,14.56-5.15,2.83-11.06,2.22-15.7-2.14-8.14-7.67-17.76-12.23-28.51-14.37-19.04-3.81-36.58.21-52.71,11.26-6.53,4.47-12.46,4.58-17.23.85-6.56-5.16-7.58-13.9-1.47-20.43,12.22-13.12,27.45-20.75,45.08-23.08,9.81-1.27,19.67-1.87,28.15.67v-.06Z"/>
      <path class="cls-1" d="M358.84,279.71c27.39,6.08,48.21,20.81,60.19,47.05,3.69,8.07,1.76,14.39-4.78,18.27-6.55,3.93-13.58,2.45-18.72-4.52-6.22-8.44-12.39-16.81-21.75-22.15-16.8-9.59-34.3-13.1-53.07-6.69-8.79,3.02-15.96.74-19.29-6.19-3.29-6.79-.7-14.36,6.84-19.48,3.66-2.46,7.63-4.32,12.01-5.33,12.77-2.85,25.62-3.95,38.63-1.01l-.07.05Z"/>
      <path class="cls-1" d="M617.13,360.99c-11.64-4.82-24.31-11.64-34.09-22.74-6.1-6.92-5.36-15.03.93-21.88,9.74-10.67,22.55-16.14,35.43-21.42,5.39-2.24,10.88-4.35,16.87-4.51,7.77-.17,13.23,3.64,15.16,10.71,1.9,6.94-.86,13.88-7.58,17.19-6.91,3.38-14.11,6.12-21.14,9.18-1.16.49-2.74.73-2.86,2.26-.13,1.59,1.47,1.84,2.53,2.46,2.15,1.37,4.31,2.75,6.46,4.12,6.59,4.09,9.56,10.7,7.28,16.66-2.56,6.8-9.07,9.96-19.02,7.98Z"/>
      <path class="cls-1" d="M544.63,339.06c-12.7-2.4-17.87-14.4-11.25-23.58,12.76-17.74,28.17-32.99,45.52-46.07,11.07-8.38,24.13-2.98,25.79,9.78.51,3.75-.76,6.97-2.74,9.87-1.74,2.59-3.85,4.93-6.05,7.14-12.73,12.72-25.52,25.37-38.31,38.08-4.09,4.05-8.97,5.5-12.92,4.85l-.05-.07Z"/>
      <path class="cls-1" d="M363.11,539.64c3.19.32,6.01,2.18,7.62,5.18,4.39,8.14,10.36,15.1,15.97,22.4,3.35,4.35,4.41,9.22,1.79,14.52-3.21,6.49-11.28,9.47-17.23,5.45-11.41-7.83-18.99-18.98-22.43-32.32-2.47-9.51,5.07-17.01,14.27-15.17v-.06Z"/>
      <path class="cls-1" d="M670.71,645.84c-9.39-1.82-13.25-12.37-7.65-19.95,2-2.72,4.73-4.59,7.73-6.1,6.6-3.27,12.55-7.5,18.24-12.19,5-4.17,11.17-4.35,15.62-.8,4.9,3.94,6.2,9.75,3.53,15.93-4.04,9.26-25.87,23.57-35.69,23.34-.71-.02-1.45-.16-1.74-.16l-.05-.07Z"/>
    </g>
  </g>
  <path class="cls-3" d="M625.11,90.99c77.04,14.92,154.1,29.78,231.13,44.77,113.74,22.13,189.45,114.6,188.66,230.97-.09,13.88-2,27.92-4.62,41.58-22.81,119.16-46.1,238.23-68.98,357.37-7.52,39.18-27.56,69.64-60.37,91.92-79.16,53.76-158.25,107.61-237.34,161.46-32.44,22.09-67.7,29.37-106.18,21.88-118.67-23.12-237.42-45.84-356.07-69.05-127.38-24.92-206.81-143.63-182.08-272.03,30.17-156.62,60.49-313.21,90.96-469.76C145.2,101.71,263.18,21.27,390.65,45.63c78.19,14.94,156.3,30.23,234.45,45.36ZM912.63,688.99c1.07-5.51,1.78-9.2,2.5-12.89,18.11-93.52,36.29-187.03,54.3-280.57,17.49-90.82-36.44-170.95-126.86-188.49-154.47-29.97-308.95-59.88-463.44-89.73-91.02-17.59-170.74,36.68-188.51,128.29-30.08,155.12-60.11,310.25-90.11,465.38-17.88,92.44,35.61,172.4,127.24,190.19,92.53,17.97,185.08,35.85,277.62,53.76,3.91.76,7.83,1.52,12.75,2.47,1.05-5.41,1.82-9.41,2.6-13.42,11.86-61.23,23.62-122.49,35.6-183.7,15.52-79.3,81.77-124.33,160.54-109.19,60.85,11.69,121.67,23.54,182.5,35.32,3.97.77,7.95,1.54,13.27,2.57ZM588.41,973.69c13.19-3.26,23.94-5.52,34.43-8.7,4.18-1.26,7.86-4.38,11.59-6.92,78.52-53.38,156.99-106.83,235.54-160.16,13.44-9.12,23.99-20.19,28.32-37.77-4.14-.8-7.74-1.5-11.35-2.2-60.83-11.78-121.65-23.6-182.5-35.32-41.77-8.04-69.45,10.82-77.65,52.92-11.92,61.22-23.73,122.46-35.59,183.7-.7,3.63-1.4,7.25-2.8,14.44Z"/>
  <path class="cls-3" d="M588.41,973.69c1.39-7.19,2.09-10.82,2.8-14.44,11.86-61.23,23.67-122.48,35.59-183.7,8.2-42.1,35.88-60.97,77.65-52.92,60.84,11.72,121.67,23.54,182.5,35.32,3.61.7,7.22,1.4,11.35,2.2-4.33,17.58-14.88,28.65-28.32,37.77-78.55,53.33-157.02,106.78-235.54,160.16-3.73,2.54-7.42,5.65-11.59,6.92-10.48,3.17-21.23,5.44-34.43,8.7Z"/>
</svg>